<svg width="1152" height="640" viewBox="0 0 1152 640" fill="none" xmlns="http://www.w3.org/2000/svg">
  <defs>
    <linearGradient id="sky" x1="576" y1="0" x2="576" y2="640" gradientUnits="userSpaceOnUse">
      <stop offset="0" stop-color="#081E28"/>
      <stop offset="0.48" stop-color="#0E4C5B"/>
      <stop offset="1" stop-color="#7FC9BB"/>
    </linearGradient>
    <linearGradient id="water" x1="576" y1="300" x2="576" y2="640" gradientUnits="userSpaceOnUse">
      <stop offset="0" stop-color="#0A5061"/>
      <stop offset="1" stop-color="#042A33"/>
    </linearGradient>
  </defs>
  <rect width="1152" height="640" fill="url(#sky)"/>
  <path d="M0 270L116 228L246 266L362 224L494 280L604 236L726 286L848 232L986 274L1098 236L1152 256V0H0V270Z" fill="#0A3040"/>
  <rect y="300" width="1152" height="340" fill="url(#water)"/>
  <path d="M0 404C112 390 228 426 352 404C468 384 588 424 700 402C830 378 958 416 1152 390V640H0V404Z" fill="#0E6674"/>
  <path d="M314 312L390 166H762L838 312H314Z" fill="#5B7D7D"/>
  <rect x="346" y="312" width="460" height="118" fill="#759B98"/>
  <path d="M444 312V224H528V312" stroke="#BFE8DA" stroke-width="18"/>
  <path d="M622 312V210H706V312" stroke="#BFE8DA" stroke-width="18"/>
  <rect x="536" y="352" width="82" height="78" fill="#294144"/>
  <path d="M0 496C184 468 326 512 492 488C674 460 820 514 1152 474V640H0V496Z" fill="#89D6CB" fill-opacity="0.24"/>
</svg>