<svg width="1152" height="640" viewBox="0 0 1152 640" fill="none" xmlns="http://www.w3.org/2000/svg">
  <defs>
    <linearGradient id="sky" x1="576" y1="0" x2="576" y2="640" gradientUnits="userSpaceOnUse">
      <stop offset="0" stop-color="#0B0614"/>
      <stop offset="0.42" stop-color="#3B1A53"/>
      <stop offset="1" stop-color="#E0A74D"/>
    </linearGradient>
    <linearGradient id="ground" x1="576" y1="318" x2="576" y2="640" gradientUnits="userSpaceOnUse">
      <stop offset="0" stop-color="#6A4D39"/>
      <stop offset="1" stop-color="#201610"/>
    </linearGradient>
    <radialGradient id="eclipse" cx="0" cy="0" r="1" gradientUnits="userSpaceOnUse" gradientTransform="translate(576 122) rotate(90) scale(132 132)">
      <stop stop-color="#FFE19A" stop-opacity="0.95"/>
      <stop offset="0.48" stop-color="#FFE19A" stop-opacity="0.3"/>
      <stop offset="0.49" stop-color="#120912" stop-opacity="0.98"/>
      <stop offset="1" stop-color="#120912" stop-opacity="0"/>
    </radialGradient>
  </defs>
  <rect width="1152" height="640" fill="url(#sky)"/>
  <circle cx="576" cy="122" r="132" fill="url(#eclipse)"/>
  <path d="M0 276L120 242L232 274L352 218L472 282L576 224L690 282L814 222L934 278L1060 236L1152 266V0H0V276Z" fill="#1B0E25"/>
  <rect y="318" width="1152" height="322" fill="url(#ground)"/>
  <path d="M0 438L142 408L288 444L422 414L576 452L726 416L874 446L1004 420L1152 446V640H0V438Z" fill="#3C281D" fill-opacity="0.72"/>
  <path d="M340 324L430 150H724L812 324H340Z" fill="#7A675C"/>
  <rect x="382" y="324" width="388" height="132" fill="#8C796C"/>
  <path d="M506 324V210H646V324" stroke="#F4D7A0" stroke-width="22"/>
  <rect x="534" y="366" width="84" height="90" fill="#251714"/>
  <rect x="458" y="350" width="34" height="54" fill="#F0B15A" fill-opacity="0.48"/>
  <rect x="660" y="350" width="34" height="54" fill="#F0B15A" fill-opacity="0.48"/>
  <path d="M120 486L176 360L232 486H120Z" fill="#211414"/>
  <path d="M920 486L976 360L1032 486H920Z" fill="#211414"/>
</svg>