<svg width="320" height="320" viewBox="0 0 320 320" fill="none" xmlns="http://www.w3.org/2000/svg">
  <defs>
    <linearGradient id="sky" x1="160" y1="0" x2="160" y2="320" gradientUnits="userSpaceOnUse">
      <stop offset="0" stop-color="#101717"/>
      <stop offset="0.42" stop-color="#36583D"/>
      <stop offset="1" stop-color="#B7C870"/>
    </linearGradient>
    <linearGradient id="ground" x1="160" y1="182" x2="160" y2="320" gradientUnits="userSpaceOnUse">
      <stop offset="0" stop-color="#5B5B47"/>
      <stop offset="1" stop-color="#23261D"/>
    </linearGradient>
  </defs>
  <rect width="320" height="320" fill="url(#sky)"/>
  <path d="M0 138L42 122L82 140L122 118L164 144L206 122L248 146L320 124V0H0V138Z" fill="#17231C"/>
  <rect y="182" width="320" height="138" fill="url(#ground)"/>
  <rect x="38" y="126" width="48" height="94" fill="#5E6755"/>
  <rect x="50" y="148" width="12" height="18" fill="#C0D26A" fill-opacity="0.45"/>
  <rect x="68" y="148" width="12" height="18" fill="#C0D26A" fill-opacity="0.45"/>
  <rect x="132" y="112" width="72" height="108" fill="#69725F"/>
  <rect x="152" y="140" width="14" height="18" fill="#C0D26A" fill-opacity="0.45"/>
  <rect x="174" y="140" width="14" height="18" fill="#C0D26A" fill-opacity="0.45"/>
  <rect x="232" y="134" width="50" height="86" fill="#5F6754"/>
</svg>