<svg width="320" height="320" viewBox="0 0 320 320" fill="none" xmlns="http://www.w3.org/2000/svg">
  <defs>
    <linearGradient id="sky" x1="160" y1="0" x2="160" y2="320" gradientUnits="userSpaceOnUse">
      <stop offset="0" stop-color="#08131B"/>
      <stop offset="0.42" stop-color="#18303B"/>
      <stop offset="1" stop-color="#5A4E3C"/>
    </linearGradient>
    <linearGradient id="ground" x1="160" y1="182" x2="160" y2="320" gradientUnits="userSpaceOnUse">
      <stop offset="0" stop-color="#635945"/>
      <stop offset="0.52" stop-color="#38352D"/>
      <stop offset="1" stop-color="#1F2420"/>
    </linearGradient>
    <linearGradient id="water" x1="160" y1="204" x2="160" y2="292" gradientUnits="userSpaceOnUse">
      <stop offset="0" stop-color="#2D746E"/>
      <stop offset="1" stop-color="#102C31"/>
    </linearGradient>
    <radialGradient id="moon" cx="0" cy="0" r="1" gradientUnits="userSpaceOnUse" gradientTransform="translate(242 72) rotate(90) scale(46 58)">
      <stop stop-color="#EFF5E8" stop-opacity="0.92"/>
      <stop offset="1" stop-color="#EFF5E8" stop-opacity="0"/>
    </radialGradient>
    <radialGradient id="fen" cx="0" cy="0" r="1" gradientUnits="userSpaceOnUse" gradientTransform="translate(124 164) rotate(90) scale(34 48)">
      <stop stop-color="#A9FFC1" stop-opacity="0.78"/>
      <stop offset="1" stop-color="#A9FFC1" stop-opacity="0"/>
    </radialGradient>
  </defs>

  <rect width="320" height="320" fill="url(#sky)"/>
  <ellipse cx="242" cy="72" rx="58" ry="46" fill="url(#moon)"/>

  <path d="M0 126L34 114L68 124L104 108L142 124L182 102L220 124L254 112L290 126L320 116V0H0V126Z" fill="#0E1B20"/>
  <path d="M0 160L44 146L82 158L118 142L164 160L206 146L244 162L286 148L320 160V320H0V160Z" fill="url(#ground)"/>

  <path d="M0 214C40 208 76 218 112 212C150 206 184 218 222 212C256 208 286 214 320 210V270C274 276 246 268 210 274C174 280 144 268 104 274C70 280 38 272 0 278V214Z" fill="url(#water)"/>

  <path d="M62 132L74 108H132L144 132H62Z" fill="#505452"/>
  <rect x="68" y="132" width="70" height="36" fill="#5E615D"/>
  <path d="M164 138L180 112H250L266 138H164Z" fill="#585D57"/>
  <rect x="172" y="138" width="86" height="32" fill="#666A63"/>
  <path d="M201 170H228V144C228 135 222 128 214 128C206 128 201 135 201 144V170Z" fill="#251F1A"/>

  <path d="M110 170L98 198H150L138 170H110Z" fill="#5C4F42"/>
  <ellipse cx="124" cy="164" rx="36" ry="22" fill="url(#fen)"/>
  <circle cx="124" cy="154" r="4" fill="#C6FFD4"/>
  <circle cx="138" cy="160" r="3" fill="#ADFFC0"/>
  <circle cx="110" cy="162" r="2.5" fill="#A0F5B4"/>

  <g fill="#202523" opacity="0.78">
    <path d="M24 244L36 214L48 244H24Z"/>
    <rect x="34" y="214" width="3" height="46"/>
    <path d="M274 246L288 214L300 246H274Z"/>
    <rect x="286" y="214" width="3" height="48"/>
    <ellipse cx="86" cy="244" rx="7" ry="18"/>
    <ellipse cx="234" cy="246" rx="6" ry="16"/>
    <ellipse cx="250" cy="248" rx="7" ry="18"/>
  </g>
</svg>
