<?xml version="1.0" encoding="UTF-8" ?>
<svg version="1.1" width="128" height="128" xmlns="http://www.w3.org/2000/svg" shape-rendering="crispEdges">
<rect x="16" y="19" width="44" height="1" fill="#847E87" />
<rect x="60" y="20" width="45" height="1" fill="#847E87" />
<rect x="7" y="24" width="7" height="1" fill="#847E87" />
<rect x="42" y="28" width="8" height="1" fill="#847E87" />
<rect x="114" y="28" width="4" height="1" fill="#847E87" />
<rect x="65" y="29" width="20" height="1" fill="#847E87" />
<rect x="17" y="30" width="2" height="1" fill="#847E87" />
<rect x="19" y="31" width="2" height="1" fill="#847E87" />
<rect x="78" y="35" width="20" height="1" fill="#847E87" />
<rect x="38" y="37" width="5" height="1" fill="#847E87" />
<rect x="47" y="42" width="5" height="4" fill="#9BADB7" />
<rect x="35" y="43" width="12" height="1" fill="#9BADB7" />
<rect x="52" y="43" width="9" height="4" fill="#9BADB7" />
<rect x="38" y="44" width="9" height="1" fill="#9BADB7" />
<rect x="61" y="44" width="7" height="4" fill="#9BADB7" />
<rect x="41" y="45" width="4" height="1" fill="#FFFFFF" />
<rect x="45" y="45" width="2" height="1" fill="#9BADB7" />
<rect x="68" y="45" width="4" height="4" fill="#9BADB7" />
<rect x="49" y="46" width="3" height="1" fill="#9BADB7" />
<rect x="72" y="46" width="6" height="5" fill="#9BADB7" />
<rect x="27" y="47" width="6" height="1" fill="#45283C" />
<rect x="47" y="47" width="5" height="1" fill="#FFFFFF" />
<rect x="56" y="47" width="5" height="1" fill="#9BADB7" />
<rect x="78" y="47" width="3" height="5" fill="#9BADB7" />
<rect x="30" y="48" width="3" height="11" fill="#45283C" />
<rect x="51" y="48" width="16" height="1" fill="#FFFFFF" />
<rect x="67" y="48" width="1" height="1" fill="#9BADB7" />
<rect x="81" y="48" width="7" height="3" fill="#9BADB7" />
<rect x="109" y="48" width="10" height="1" fill="#847E87" />
<rect x="29" y="49" width="1" height="1" fill="#45283C" />
<rect x="33" y="49" width="2" height="10" fill="#45283C" />
<rect x="61" y="49" width="10" height="2" fill="#FFFFFF" />
<rect x="71" y="49" width="1" height="2" fill="#9BADB7" />
<rect x="88" y="49" width="2" height="2" fill="#9BADB7" />
<rect x="15" y="50" width="15" height="1" fill="#847E87" />
<rect x="35" y="50" width="1" height="9" fill="#45283C" />
<rect x="90" y="50" width="3" height="2" fill="#9BADB7" />
<rect x="24" y="51" width="6" height="1" fill="#45283C" />
<rect x="36" y="51" width="1" height="8" fill="#45283C" />
<rect x="65" y="51" width="13" height="1" fill="#FFFFFF" />
<rect x="81" y="51" width="3" height="1" fill="#9BADB7" />
<rect x="84" y="51" width="5" height="3" fill="#FFFFFF" />
<rect x="89" y="51" width="1" height="1" fill="#9BADB7" />
<rect x="93" y="51" width="6" height="2" fill="#9BADB7" />
<rect x="25" y="52" width="5" height="1" fill="#45283C" />
<rect x="37" y="52" width="1" height="1" fill="#45283C" />
<rect x="66" y="52" width="18" height="1" fill="#FFFFFF" />
<rect x="89" y="52" width="3" height="1" fill="#FFFFFF" />
<rect x="92" y="52" width="1" height="1" fill="#9BADB7" />
<rect x="99" y="52" width="3" height="1" fill="#9BADB7" />
<rect x="26" y="53" width="4" height="1" fill="#45283C" />
<rect x="52" y="53" width="6" height="1" fill="#FFFFFF" />
<rect x="67" y="53" width="17" height="1" fill="#FFFFFF" />
<rect x="89" y="53" width="30" height="1" fill="#847E87" />
<rect x="27" y="54" width="3" height="1" fill="#45283C" />
<rect x="37" y="54" width="1" height="4" fill="#45283C" />
<rect x="57" y="54" width="25" height="1" fill="#FFFFFF" />
<rect x="82" y="54" width="7" height="1" fill="#ADACAC" />
<rect x="89" y="54" width="7" height="1" fill="#FFFFFF" />
<rect x="96" y="54" width="10" height="1" fill="#9BADB7" />
<rect x="29" y="55" width="1" height="4" fill="#45283C" />
<rect x="38" y="55" width="3" height="1" fill="#45283C" />
<rect x="65" y="55" width="4" height="1" fill="#9BADB7" />
<rect x="69" y="55" width="20" height="1" fill="#FFFFFF" />
<rect x="89" y="55" width="9" height="1" fill="#ADACAC" />
<rect x="98" y="55" width="4" height="4" fill="#FFFFFF" />
<rect x="102" y="55" width="6" height="1" fill="#9BADB7" />
<rect x="28" y="56" width="1" height="9" fill="#45283C" />
<rect x="69" y="56" width="14" height="1" fill="#9BADB7" />
<rect x="83" y="56" width="15" height="1" fill="#FFFFFF" />
<rect x="102" y="56" width="7" height="3" fill="#FFFFFF" />
<rect x="25" y="57" width="3" height="8" fill="#45283C" />
<rect x="61" y="57" width="17" height="1" fill="#FFFFFF" />
<rect x="78" y="57" width="15" height="1" fill="#9BADB7" />
<rect x="93" y="57" width="5" height="1" fill="#FFFFFF" />
<rect x="109" y="57" width="3" height="2" fill="#FFFFFF" />
<rect x="24" y="58" width="1" height="12" fill="#45283C" />
<rect x="71" y="58" width="11" height="1" fill="#FFFFFF" />
<rect x="82" y="58" width="12" height="1" fill="#ADACAC" />
<rect x="94" y="58" width="4" height="1" fill="#FFFFFF" />
<rect x="112" y="58" width="2" height="3" fill="#FFFFFF" />
<rect x="11" y="59" width="3" height="8" fill="#45283C" />
<rect x="19" y="59" width="5" height="9" fill="#45283C" />
<rect x="29" y="59" width="2" height="1" fill="#FFFFFF" />
<rect x="31" y="59" width="2" height="2" fill="#45283C" />
<rect x="33" y="59" width="69" height="1" fill="#847E87" />
<rect x="102" y="59" width="10" height="1" fill="#9BADB7" />
<rect x="114" y="59" width="3" height="2" fill="#FFFFFF" />
<rect x="9" y="60" width="2" height="7" fill="#45283C" />
<rect x="14" y="60" width="5" height="8" fill="#45283C" />
<rect x="29" y="60" width="2" height="3" fill="#45283C" />
<rect x="33" y="60" width="42" height="1" fill="#FFFFFF" />
<rect x="75" y="60" width="15" height="1" fill="#ADACAC" />
<rect x="90" y="60" width="6" height="1" fill="#FFFFFF" />
<rect x="96" y="60" width="13" height="1" fill="#ADACAC" />
<rect x="109" y="60" width="2" height="1" fill="#FFFFFF" />
<rect x="111" y="60" width="1" height="1" fill="#9BADB7" />
<rect x="117" y="60" width="1" height="9" fill="#FFFFFF" />
<rect x="0" y="61" width="9" height="1" fill="#45283C" />
<rect x="31" y="61" width="28" height="1" fill="#FFFFFF" />
<rect x="59" y="61" width="3" height="1" fill="#ADACAC" />
<rect x="62" y="61" width="4" height="4" fill="#FFFFFF" />
<rect x="66" y="61" width="1" height="1" fill="#847E87" />
<rect x="67" y="61" width="2" height="4" fill="#FFFFFF" />
<rect x="69" y="61" width="8" height="1" fill="#9BADB7" />
<rect x="77" y="61" width="16" height="1" fill="#847E87" />
<rect x="93" y="61" width="3" height="1" fill="#FFFFFF" />
<rect x="96" y="61" width="1" height="2" fill="#9BADB7" />
<rect x="97" y="61" width="19" height="1" fill="#847E87" />
<rect x="116" y="61" width="1" height="9" fill="#FFFFFF" />
<rect x="118" y="61" width="3" height="5" fill="#FFFFFF" />
<rect x="2" y="62" width="7" height="2" fill="#45283C" />
<rect x="31" y="62" width="3" height="1" fill="#45283C" />
<rect x="34" y="62" width="28" height="3" fill="#FFFFFF" />
<rect x="66" y="62" width="1" height="3" fill="#FFFFFF" />
<rect x="69" y="62" width="16" height="1" fill="#FFFFFF" />
<rect x="85" y="62" width="11" height="3" fill="#9BADB7" />
<rect x="97" y="62" width="13" height="1" fill="#9BADB7" />
<rect x="110" y="62" width="6" height="1" fill="#FFFFFF" />
<rect x="121" y="62" width="2" height="2" fill="#FFFFFF" />
<rect x="1" y="63" width="1" height="1" fill="#45283C" />
<rect x="29" y="63" width="1" height="2" fill="#45283C" />
<rect x="30" y="63" width="4" height="1" fill="#FFFFFF" />
<rect x="69" y="63" width="10" height="1" fill="#FFFFFF" />
<rect x="79" y="63" width="3" height="2" fill="#9BADB7" />
<rect x="82" y="63" width="1" height="1" fill="#FFFFFF" />
<rect x="83" y="63" width="2" height="2" fill="#9BADB7" />
<rect x="96" y="63" width="5" height="2" fill="#FFFFFF" />
<rect x="101" y="63" width="1" height="1" fill="#9BADB7" />
<rect x="102" y="63" width="11" height="1" fill="#ADACAC" />
<rect x="113" y="63" width="3" height="2" fill="#FFFFFF" />
<rect x="4" y="64" width="5" height="2" fill="#45283C" />
<rect x="30" y="64" width="3" height="1" fill="#45283C" />
<rect x="33" y="64" width="1" height="1" fill="#FFFFFF" />
<rect x="69" y="64" width="5" height="1" fill="#FFFFFF" />
<rect x="74" y="64" width="5" height="1" fill="#9BADB7" />
<rect x="82" y="64" width="1" height="1" fill="#9BADB7" />
<rect x="101" y="64" width="1" height="1" fill="#ADACAC" />
<rect x="102" y="64" width="11" height="1" fill="#FFFFFF" />
<rect x="121" y="64" width="1" height="2" fill="#FFFFFF" />
<rect x="25" y="65" width="1" height="9" fill="#45283C" />
<rect x="26" y="65" width="82" height="1" fill="#847E87" />
<rect x="108" y="65" width="1" height="1" fill="#ADACAC" />
<rect x="109" y="65" width="6" height="1" fill="#9BADB7" />
<rect x="115" y="65" width="1" height="6" fill="#FFFFFF" />
<rect x="5" y="66" width="4" height="1" fill="#45283C" />
<rect x="26" y="66" width="2" height="8" fill="#45283C" />
<rect x="28" y="66" width="57" height="1" fill="#ADACAC" />
<rect x="85" y="66" width="23" height="1" fill="#9BADB7" />
<rect x="108" y="66" width="7" height="1" fill="#FFFFFF" />
<rect x="118" y="66" width="2" height="1" fill="#FFFFFF" />
<rect x="28" y="67" width="6" height="1" fill="#45283C" />
<rect x="34" y="67" width="51" height="2" fill="#ADACAC" />
<rect x="85" y="67" width="16" height="1" fill="#9BADB7" />
<rect x="101" y="67" width="14" height="1" fill="#847E87" />
<rect x="118" y="67" width="1" height="2" fill="#FFFFFF" />
<rect x="23" y="68" width="1" height="2" fill="#45283C" />
<rect x="28" y="68" width="1" height="6" fill="#45283C" />
<rect x="29" y="68" width="5" height="1" fill="#ADACAC" />
<rect x="85" y="68" width="2" height="1" fill="#ADACAC" />
<rect x="87" y="68" width="3" height="1" fill="#9BADB7" />
<rect x="90" y="68" width="4" height="1" fill="#ADACAC" />
<rect x="94" y="68" width="2" height="1" fill="#9BADB7" />
<rect x="96" y="68" width="3" height="1" fill="#FFFFFF" />
<rect x="99" y="68" width="10" height="1" fill="#9BADB7" />
<rect x="109" y="68" width="6" height="2" fill="#FFFFFF" />
<rect x="18" y="69" width="5" height="1" fill="#45283C" />
<rect x="29" y="69" width="1" height="9" fill="#45283C" />
<rect x="30" y="69" width="52" height="1" fill="#ADACAC" />
<rect x="82" y="69" width="6" height="1" fill="#9BADB7" />
<rect x="88" y="69" width="1" height="1" fill="#ADACAC" />
<rect x="89" y="69" width="8" height="1" fill="#FFFFFF" />
<rect x="97" y="69" width="5" height="1" fill="#ADACAC" />
<rect x="102" y="69" width="7" height="4" fill="#FFFFFF" />
<rect x="15" y="70" width="10" height="1" fill="#847E87" />
<rect x="30" y="70" width="1" height="8" fill="#45283C" />
<rect x="31" y="70" width="70" height="1" fill="#847E87" />
<rect x="101" y="70" width="1" height="3" fill="#FFFFFF" />
<rect x="109" y="70" width="1" height="1" fill="#9BADB7" />
<rect x="110" y="70" width="5" height="1" fill="#FFFFFF" />
<rect x="21" y="71" width="4" height="1" fill="#45283C" />
<rect x="31" y="71" width="6" height="7" fill="#45283C" />
<rect x="67" y="71" width="19" height="1" fill="#9BADB7" />
<rect x="86" y="71" width="4" height="3" fill="#FFFFFF" />
<rect x="90" y="71" width="4" height="1" fill="#ADACAC" />
<rect x="94" y="71" width="4" height="2" fill="#FFFFFF" />
<rect x="98" y="71" width="2" height="1" fill="#9BADB7" />
<rect x="100" y="71" width="1" height="2" fill="#FFFFFF" />
<rect x="109" y="71" width="5" height="1" fill="#FFFFFF" />
<rect x="23" y="72" width="2" height="1" fill="#45283C" />
<rect x="60" y="72" width="10" height="1" fill="#9BADB7" />
<rect x="70" y="72" width="16" height="3" fill="#FFFFFF" />
<rect x="90" y="72" width="4" height="1" fill="#FFFFFF" />
<rect x="98" y="72" width="2" height="1" fill="#FFFFFF" />
<rect x="109" y="72" width="3" height="1" fill="#FFFFFF" />
<rect x="24" y="73" width="1" height="1" fill="#45283C" />
<rect x="37" y="73" width="1" height="5" fill="#45283C" />
<rect x="57" y="73" width="3" height="2" fill="#FFFFFF" />
<rect x="68" y="73" width="2" height="3" fill="#FFFFFF" />
<rect x="90" y="73" width="2" height="1" fill="#FFFFFF" />
<rect x="92" y="73" width="18" height="1" fill="#9BADB7" />
<rect x="110" y="73" width="1" height="1" fill="#FFFFFF" />
<rect x="38" y="74" width="1" height="4" fill="#45283C" />
<rect x="49" y="74" width="8" height="1" fill="#FFFFFF" />
<rect x="60" y="74" width="8" height="1" fill="#FFFFFF" />
<rect x="86" y="74" width="1" height="1" fill="#FFFFFF" />
<rect x="87" y="74" width="6" height="1" fill="#ADACAC" />
<rect x="93" y="74" width="12" height="1" fill="#9BADB7" />
<rect x="105" y="74" width="3" height="1" fill="#FFFFFF" />
<rect x="23" y="75" width="6" height="1" fill="#45283C" />
<rect x="39" y="75" width="4" height="1" fill="#45283C" />
<rect x="61" y="75" width="7" height="1" fill="#FFFFFF" />
<rect x="70" y="75" width="11" height="1" fill="#FFFFFF" />
<rect x="81" y="75" width="7" height="1" fill="#ADACAC" />
<rect x="88" y="75" width="5" height="2" fill="#FFFFFF" />
<rect x="93" y="75" width="4" height="1" fill="#ADACAC" />
<rect x="97" y="75" width="9" height="1" fill="#FFFFFF" />
<rect x="27" y="76" width="2" height="2" fill="#45283C" />
<rect x="61" y="76" width="3" height="1" fill="#FFFFFF" />
<rect x="72" y="76" width="16" height="1" fill="#FFFFFF" />
<rect x="93" y="76" width="11" height="1" fill="#FFFFFF" />
<rect x="71" y="77" width="2" height="2" fill="#FFFFFF" />
<rect x="73" y="77" width="45" height="1" fill="#847E87" />
<rect x="16" y="78" width="40" height="1" fill="#847E87" />
<rect x="70" y="78" width="1" height="1" fill="#FFFFFF" />
<rect x="73" y="78" width="10" height="1" fill="#FFFFFF" />
<rect x="83" y="78" width="3" height="1" fill="#9BADB7" />
<rect x="86" y="78" width="14" height="1" fill="#FFFFFF" />
<rect x="29" y="79" width="8" height="1" fill="#45283C" />
<rect x="69" y="79" width="14" height="1" fill="#9BADB7" />
<rect x="83" y="79" width="16" height="1" fill="#FFFFFF" />
<rect x="26" y="80" width="1" height="2" fill="#45283C" />
<rect x="30" y="80" width="6" height="1" fill="#45283C" />
<rect x="65" y="80" width="12" height="1" fill="#FFFFFF" />
<rect x="77" y="80" width="1" height="1" fill="#9BADB7" />
<rect x="78" y="80" width="20" height="1" fill="#FFFFFF" />
<rect x="22" y="81" width="4" height="1" fill="#45283C" />
<rect x="27" y="81" width="6" height="1" fill="#45283C" />
<rect x="70" y="81" width="7" height="2" fill="#FFFFFF" />
<rect x="77" y="81" width="19" height="1" fill="#ADACAC" />
<rect x="77" y="82" width="14" height="2" fill="#FFFFFF" />
<rect x="92" y="82" width="3" height="1" fill="#FFFFFF" />
<rect x="69" y="83" width="5" height="2" fill="#FFFFFF" />
<rect x="75" y="83" width="2" height="4" fill="#FFFFFF" />
<rect x="91" y="83" width="1" height="1" fill="#9BADB7" />
<rect x="92" y="83" width="1" height="1" fill="#FFFFFF" />
<rect x="67" y="84" width="2" height="4" fill="#FFFFFF" />
<rect x="74" y="84" width="1" height="3" fill="#FFFFFF" />
<rect x="77" y="84" width="13" height="1" fill="#FFFFFF" />
<rect x="66" y="85" width="1" height="2" fill="#FFFFFF" />
<rect x="69" y="85" width="1" height="3" fill="#FFFFFF" />
<rect x="71" y="85" width="3" height="2" fill="#FFFFFF" />
<rect x="77" y="85" width="8" height="1" fill="#FFFFFF" />
<rect x="64" y="86" width="2" height="2" fill="#FFFFFF" />
<rect x="70" y="86" width="1" height="2" fill="#FFFFFF" />
<rect x="77" y="86" width="7" height="1" fill="#FFFFFF" />
<rect x="61" y="87" width="3" height="1" fill="#FFFFFF" />
<rect x="71" y="87" width="2" height="1" fill="#FFFFFF" />
<rect x="57" y="88" width="5" height="1" fill="#FFFFFF" />
<rect x="55" y="89" width="3" height="1" fill="#FFFFFF" />
<rect x="83" y="94" width="13" height="1" fill="#847E87" />
<rect x="27" y="95" width="10" height="1" fill="#847E87" />
<rect x="96" y="95" width="13" height="1" fill="#847E87" />
<rect x="9" y="100" width="18" height="1" fill="#847E87" />
<rect x="27" y="103" width="71" height="1" fill="#847E87" />
<rect x="89" y="109" width="15" height="1" fill="#847E87" />
<rect x="61" y="112" width="8" height="1" fill="#847E87" />
</svg>