<?xml version="1.0" encoding="UTF-8" ?>
<svg version="1.1" width="128" height="128" xmlns="http://www.w3.org/2000/svg" shape-rendering="crispEdges">
<rect x="49" y="13" width="1" height="3" fill="#639BFF" />
<rect x="50" y="14" width="2" height="3" fill="#639BFF" />
<rect x="48" y="15" width="1" height="1" fill="#639BFF" />
<rect x="54" y="15" width="1" height="3" fill="#639BFF" />
<rect x="65" y="15" width="1" height="2" fill="#6096F7" />
<rect x="45" y="16" width="1" height="3" fill="#639BFF" />
<rect x="52" y="16" width="1" height="8" fill="#639BFF" />
<rect x="55" y="16" width="1" height="4" fill="#639BFF" />
<rect x="46" y="17" width="2" height="5" fill="#639BFF" />
<rect x="49" y="17" width="2" height="1" fill="#639BFF" />
<rect x="56" y="17" width="1" height="14" fill="#4685F7" />
<rect x="58" y="17" width="1" height="3" fill="#639BFF" />
<rect x="63" y="17" width="2" height="5" fill="#6096F7" />
<rect x="65" y="17" width="1" height="1" fill="#4C8AF7" />
<rect x="48" y="18" width="2" height="1" fill="#6096F7" />
<rect x="50" y="18" width="1" height="1" fill="#639BFF" />
<rect x="53" y="18" width="1" height="8" fill="#639BFF" />
<rect x="57" y="18" width="1" height="2" fill="#639BFF" />
<rect x="49" y="19" width="2" height="1" fill="#6096F7" />
<rect x="51" y="19" width="1" height="1" fill="#639BFF" />
<rect x="50" y="20" width="1" height="2" fill="#6096F7" />
<rect x="51" y="20" width="1" height="13" fill="#4685F7" />
<rect x="54" y="20" width="2" height="3" fill="#4685F7" />
<rect x="57" y="20" width="3" height="2" fill="#4C8AF7" />
<rect x="60" y="20" width="3" height="2" fill="#6096F7" />
<rect x="65" y="20" width="2" height="4" fill="#639BFF" />
<rect x="40" y="21" width="1" height="2" fill="#639BFF" />
<rect x="43" y="21" width="1" height="2" fill="#639BFF" />
<rect x="48" y="21" width="2" height="1" fill="#639BFF" />
<rect x="68" y="21" width="1" height="4" fill="#639BFF" />
<rect x="41" y="22" width="2" height="1" fill="#639BFF" />
<rect x="45" y="22" width="2" height="5" fill="#639BFF" />
<rect x="47" y="22" width="2" height="5" fill="#4685F7" />
<rect x="49" y="22" width="1" height="4" fill="#639BFF" />
<rect x="50" y="22" width="1" height="5" fill="#4685F7" />
<rect x="57" y="22" width="1" height="2" fill="#639BFF" />
<rect x="58" y="22" width="2" height="1" fill="#4C8AF7" />
<rect x="60" y="22" width="1" height="1" fill="#639BFF" />
<rect x="61" y="22" width="2" height="1" fill="#6096F7" />
<rect x="63" y="22" width="2" height="3" fill="#639BFF" />
<rect x="67" y="22" width="1" height="6" fill="#639BFF" />
<rect x="40" y="23" width="4" height="1" fill="#4C8AF7" />
<rect x="44" y="23" width="1" height="1" fill="#639BFF" />
<rect x="54" y="23" width="1" height="4" fill="#639BFF" />
<rect x="55" y="23" width="1" height="8" fill="#4685F7" />
<rect x="58" y="23" width="1" height="3" fill="#639BFF" />
<rect x="59" y="23" width="1" height="3" fill="#4C8AF7" />
<rect x="60" y="23" width="2" height="1" fill="#6096F7" />
<rect x="62" y="23" width="1" height="3" fill="#639BFF" />
<rect x="40" y="24" width="2" height="1" fill="#639BFF" />
<rect x="42" y="24" width="3" height="1" fill="#4C8AF7" />
<rect x="52" y="24" width="1" height="3" fill="#4685F7" />
<rect x="57" y="24" width="1" height="7" fill="#4685F7" />
<rect x="60" y="24" width="2" height="3" fill="#639BFF" />
<rect x="65" y="24" width="2" height="1" fill="#6096F7" />
<rect x="41" y="25" width="2" height="3" fill="#639BFF" />
<rect x="43" y="25" width="1" height="2" fill="#4C8AF7" />
<rect x="44" y="25" width="1" height="1" fill="#639BFF" />
<rect x="63" y="25" width="1" height="1" fill="#639BFF" />
<rect x="64" y="25" width="2" height="1" fill="#6096F7" />
<rect x="66" y="25" width="1" height="3" fill="#639BFF" />
<rect x="37" y="26" width="4" height="2" fill="#639BFF" />
<rect x="44" y="26" width="1" height="3" fill="#6096F7" />
<rect x="49" y="26" width="1" height="8" fill="#4685F7" />
<rect x="53" y="26" width="1" height="7" fill="#4685F7" />
<rect x="58" y="26" width="2" height="3" fill="#4685F7" />
<rect x="62" y="26" width="1" height="4" fill="#4C8AF7" />
<rect x="63" y="26" width="2" height="1" fill="#6096F7" />
<rect x="65" y="26" width="1" height="2" fill="#639BFF" />
<rect x="68" y="26" width="4" height="4" fill="#639BFF" />
<rect x="36" y="27" width="1" height="2" fill="#639BFF" />
<rect x="43" y="27" width="1" height="1" fill="#639BFF" />
<rect x="45" y="27" width="1" height="1" fill="#639BFF" />
<rect x="46" y="27" width="2" height="2" fill="#4685F7" />
<rect x="48" y="27" width="1" height="1" fill="#4C8AF7" />
<rect x="50" y="27" width="1" height="1" fill="#639BFF" />
<rect x="52" y="27" width="1" height="2" fill="#639BFF" />
<rect x="54" y="27" width="1" height="7" fill="#4685F7" />
<rect x="60" y="27" width="2" height="3" fill="#4C8AF7" />
<rect x="63" y="27" width="1" height="1" fill="#6096F7" />
<rect x="64" y="27" width="1" height="1" fill="#639BFF" />
<rect x="72" y="27" width="2" height="3" fill="#639BFF" />
<rect x="39" y="28" width="1" height="5" fill="#639BFF" />
<rect x="40" y="28" width="4" height="1" fill="#4685F7" />
<rect x="45" y="28" width="1" height="2" fill="#6096F7" />
<rect x="48" y="28" width="1" height="2" fill="#4685F7" />
<rect x="50" y="28" width="1" height="6" fill="#4685F7" />
<rect x="63" y="28" width="5" height="1" fill="#4C8AF7" />
<rect x="74" y="28" width="1" height="2" fill="#639BFF" />
<rect x="38" y="29" width="1" height="2" fill="#639BFF" />
<rect x="40" y="29" width="2" height="3" fill="#639BFF" />
<rect x="42" y="29" width="1" height="4" fill="#4685F7" />
<rect x="43" y="29" width="1" height="2" fill="#639BFF" />
<rect x="44" y="29" width="1" height="6" fill="#4685F7" />
<rect x="46" y="29" width="2" height="1" fill="#6096F7" />
<rect x="52" y="29" width="1" height="1" fill="#4C8AF7" />
<rect x="58" y="29" width="1" height="2" fill="#4685F7" />
<rect x="59" y="29" width="1" height="1" fill="#4C8AF7" />
<rect x="63" y="29" width="4" height="1" fill="#4C8AF7" />
<rect x="67" y="29" width="1" height="1" fill="#639BFF" />
<rect x="37" y="30" width="1" height="1" fill="#639BFF" />
<rect x="45" y="30" width="2" height="1" fill="#4685F7" />
<rect x="47" y="30" width="2" height="1" fill="#6096F7" />
<rect x="52" y="30" width="1" height="3" fill="#4685F7" />
<rect x="59" y="30" width="6" height="1" fill="#4685F7" />
<rect x="65" y="30" width="2" height="3" fill="#6096F7" />
<rect x="67" y="30" width="2" height="1" fill="#4C8AF7" />
<rect x="69" y="30" width="3" height="2" fill="#639BFF" />
<rect x="35" y="31" width="4" height="1" fill="#6096F7" />
<rect x="43" y="31" width="1" height="4" fill="#4685F7" />
<rect x="45" y="31" width="2" height="1" fill="#639BFF" />
<rect x="47" y="31" width="2" height="2" fill="#4685F7" />
<rect x="55" y="31" width="3" height="1" fill="#4C8AF7" />
<rect x="58" y="31" width="5" height="2" fill="#6096F7" />
<rect x="63" y="31" width="1" height="1" fill="#639BFF" />
<rect x="64" y="31" width="1" height="1" fill="#4685F7" />
<rect x="67" y="31" width="1" height="1" fill="#4685F7" />
<rect x="68" y="31" width="1" height="1" fill="#639BFF" />
<rect x="72" y="31" width="1" height="2" fill="#639BFF" />
<rect x="33" y="32" width="4" height="1" fill="#6096F7" />
<rect x="37" y="32" width="1" height="1" fill="#639BFF" />
<rect x="40" y="32" width="1" height="1" fill="#639BFF" />
<rect x="41" y="32" width="1" height="3" fill="#6096F7" />
<rect x="45" y="32" width="1" height="1" fill="#6096F7" />
<rect x="46" y="32" width="1" height="1" fill="#4685F7" />
<rect x="55" y="32" width="1" height="2" fill="#4685F7" />
<rect x="56" y="32" width="2" height="1" fill="#4C8AF7" />
<rect x="63" y="32" width="2" height="1" fill="#6096F7" />
<rect x="68" y="32" width="3" height="1" fill="#4685F7" />
<rect x="71" y="32" width="1" height="1" fill="#639BFF" />
<rect x="73" y="32" width="1" height="1" fill="#639BFF" />
<rect x="32" y="33" width="2" height="1" fill="#6096F7" />
<rect x="39" y="33" width="2" height="3" fill="#6096F7" />
<rect x="42" y="33" width="1" height="1" fill="#6096F7" />
<rect x="45" y="33" width="1" height="4" fill="#4685F7" />
<rect x="46" y="33" width="3" height="1" fill="#6096F7" />
<rect x="51" y="33" width="3" height="1" fill="#6096F7" />
<rect x="56" y="33" width="8" height="1" fill="#5B6EE1" />
<rect x="64" y="33" width="2" height="1" fill="#6096F7" />
<rect x="66" y="33" width="1" height="1" fill="#5B6EE1" />
<rect x="70" y="33" width="1" height="1" fill="#4685F7" />
<rect x="32" y="34" width="1" height="2" fill="#6096F7" />
<rect x="42" y="34" width="1" height="1" fill="#4685F7" />
<rect x="46" y="34" width="3" height="2" fill="#4685F7" />
<rect x="49" y="34" width="1" height="1" fill="#639BFF" />
<rect x="50" y="34" width="2" height="1" fill="#6096F7" />
<rect x="52" y="34" width="10" height="1" fill="#5B6EE1" />
<rect x="62" y="34" width="3" height="8" fill="#5368E6" />
<rect x="65" y="34" width="2" height="1" fill="#5A6DE1" />
<rect x="41" y="35" width="4" height="1" fill="#639BFF" />
<rect x="49" y="35" width="2" height="1" fill="#6096F7" />
<rect x="51" y="35" width="10" height="2" fill="#5B6EE1" />
<rect x="61" y="35" width="1" height="5" fill="#5368E6" />
<rect x="65" y="35" width="1" height="11" fill="#5368E6" />
<rect x="66" y="35" width="2" height="1" fill="#5B6EE1" />
<rect x="37" y="36" width="3" height="2" fill="#6096F7" />
<rect x="40" y="36" width="2" height="1" fill="#639BFF" />
<rect x="42" y="36" width="3" height="1" fill="#4C8AF7" />
<rect x="46" y="36" width="2" height="1" fill="#4685F7" />
<rect x="48" y="36" width="2" height="2" fill="#6096F7" />
<rect x="50" y="36" width="1" height="4" fill="#5B6EE1" />
<rect x="66" y="36" width="1" height="10" fill="#5368E6" />
<rect x="67" y="36" width="1" height="2" fill="#5B6EE1" />
<rect x="36" y="37" width="1" height="5" fill="#6096F7" />
<rect x="40" y="37" width="3" height="1" fill="#6096F7" />
<rect x="43" y="37" width="2" height="1" fill="#4C8AF7" />
<rect x="45" y="37" width="3" height="1" fill="#6096F7" />
<rect x="51" y="37" width="9" height="1" fill="#5B6EE1" />
<rect x="60" y="37" width="1" height="2" fill="#5A6DE1" />
<rect x="68" y="37" width="1" height="5" fill="#5B6EE1" />
<rect x="37" y="38" width="2" height="1" fill="#6096F7" />
<rect x="39" y="38" width="1" height="2" fill="#639BFF" />
<rect x="40" y="38" width="1" height="1" fill="#6096F7" />
<rect x="41" y="38" width="3" height="1" fill="#4C8AF7" />
<rect x="44" y="38" width="2" height="1" fill="#6096F7" />
<rect x="46" y="38" width="1" height="1" fill="#4685F7" />
<rect x="47" y="38" width="2" height="1" fill="#6096F7" />
<rect x="49" y="38" width="1" height="3" fill="#5B6EE1" />
<rect x="51" y="38" width="6" height="1" fill="#5B6EE1" />
<rect x="57" y="38" width="3" height="1" fill="#5A6DE1" />
<rect x="67" y="38" width="1" height="8" fill="#5368E6" />
<rect x="37" y="39" width="1" height="4" fill="#6096F7" />
<rect x="38" y="39" width="1" height="3" fill="#639BFF" />
<rect x="40" y="39" width="1" height="1" fill="#639BFF" />
<rect x="41" y="39" width="2" height="1" fill="#4C8AF7" />
<rect x="46" y="39" width="2" height="1" fill="#6096F7" />
<rect x="48" y="39" width="1" height="2" fill="#5B6EE1" />
<rect x="51" y="39" width="4" height="1" fill="#5B6EE1" />
<rect x="55" y="39" width="3" height="1" fill="#5A6DE1" />
<rect x="58" y="39" width="3" height="11" fill="#5B6EE1" />
<rect x="41" y="40" width="1" height="1" fill="#4C8AF7" />
<rect x="46" y="40" width="1" height="1" fill="#6096F7" />
<rect x="47" y="40" width="1" height="1" fill="#5B6EE1" />
<rect x="50" y="40" width="6" height="1" fill="#5A6DE1" />
<rect x="56" y="40" width="2" height="14" fill="#5B6EE1" />
<rect x="61" y="40" width="1" height="18" fill="#5B6EE1" />
<rect x="46" y="41" width="1" height="1" fill="#5B6EE1" />
<rect x="47" y="41" width="4" height="1" fill="#5A6DE1" />
<rect x="51" y="41" width="5" height="2" fill="#5B6EE1" />
<rect x="69" y="41" width="1" height="5" fill="#5B6EE1" />
<rect x="47" y="42" width="4" height="2" fill="#5B6EE1" />
<rect x="62" y="42" width="1" height="14" fill="#5B6EE1" />
<rect x="63" y="42" width="2" height="5" fill="#5368E6" />
<rect x="68" y="42" width="1" height="5" fill="#5368E6" />
<rect x="35" y="43" width="2" height="2" fill="#6096F7" />
<rect x="51" y="43" width="3" height="12" fill="#5B6EE1" />
<rect x="54" y="43" width="1" height="1" fill="#5E72EF" />
<rect x="55" y="43" width="1" height="42" fill="#5B6EE1" />
<rect x="48" y="44" width="3" height="2" fill="#5B6EE1" />
<rect x="54" y="44" width="1" height="33" fill="#5B6EE1" />
<rect x="70" y="44" width="1" height="4" fill="#5B6EE1" />
<rect x="49" y="46" width="2" height="2" fill="#5B6EE1" />
<rect x="65" y="46" width="3" height="13" fill="#4B61E4" />
<rect x="69" y="46" width="1" height="3" fill="#5368E6" />
<rect x="63" y="47" width="1" height="1" fill="#5368E6" />
<rect x="64" y="47" width="1" height="3" fill="#4B61E4" />
<rect x="68" y="47" width="1" height="12" fill="#4B61E4" />
<rect x="71" y="47" width="1" height="2" fill="#5B6EE1" />
<rect x="50" y="48" width="1" height="3" fill="#5B6EE1" />
<rect x="63" y="48" width="1" height="4" fill="#5B6EE1" />
<rect x="70" y="48" width="1" height="2" fill="#5368E6" />
<rect x="69" y="49" width="1" height="10" fill="#4B61E4" />
<rect x="71" y="49" width="1" height="4" fill="#5368E6" />
<rect x="58" y="50" width="1" height="2" fill="#5E72EF" />
<rect x="59" y="50" width="2" height="1" fill="#5B6EE1" />
<rect x="64" y="50" width="1" height="3" fill="#5368E6" />
<rect x="70" y="50" width="1" height="9" fill="#4B61E4" />
<rect x="72" y="50" width="1" height="1" fill="#5B6EE1" />
<rect x="59" y="51" width="1" height="3" fill="#5E72EF" />
<rect x="60" y="51" width="1" height="8" fill="#5B6EE1" />
<rect x="72" y="51" width="1" height="2" fill="#5368E6" />
<rect x="58" y="52" width="1" height="2" fill="#5B6EE1" />
<rect x="63" y="52" width="1" height="3" fill="#5368E6" />
<rect x="73" y="52" width="1" height="1" fill="#5B6EE1" />
<rect x="64" y="53" width="1" height="6" fill="#4B61E4" />
<rect x="71" y="53" width="3" height="5" fill="#4B61E4" />
<rect x="56" y="54" width="1" height="7" fill="#5B6EE1" />
<rect x="57" y="54" width="2" height="1" fill="#5E72EF" />
<rect x="59" y="54" width="1" height="1" fill="#5B6EE1" />
<rect x="74" y="54" width="1" height="3" fill="#4B61E4" />
<rect x="52" y="55" width="2" height="3" fill="#5B6EE1" />
<rect x="57" y="55" width="1" height="5" fill="#5B6EE1" />
<rect x="58" y="55" width="2" height="1" fill="#5E72EF" />
<rect x="63" y="55" width="1" height="3" fill="#4B61E4" />
<rect x="75" y="55" width="2" height="1" fill="#5B6EE1" />
<rect x="58" y="56" width="1" height="4" fill="#5B6EE1" />
<rect x="59" y="56" width="1" height="1" fill="#5E72EF" />
<rect x="62" y="56" width="1" height="6" fill="#4D63E6" />
<rect x="75" y="56" width="3" height="7" fill="#4D63E6" />
<rect x="78" y="56" width="3" height="1" fill="#5B6EE1" />
<rect x="59" y="57" width="1" height="2" fill="#5B6EE1" />
<rect x="74" y="57" width="1" height="5" fill="#4D63E6" />
<rect x="78" y="57" width="2" height="6" fill="#4D63E6" />
<rect x="80" y="57" width="3" height="1" fill="#5B6EE1" />
<rect x="53" y="58" width="1" height="22" fill="#5B6EE1" />
<rect x="61" y="58" width="1" height="5" fill="#4D63E6" />
<rect x="63" y="58" width="1" height="4" fill="#4D63E6" />
<rect x="71" y="58" width="2" height="1" fill="#4B61E4" />
<rect x="73" y="58" width="1" height="4" fill="#4D63E6" />
<rect x="80" y="58" width="4" height="5" fill="#4D63E6" />
<rect x="84" y="58" width="2" height="1" fill="#5B6EE1" />
<rect x="59" y="59" width="2" height="4" fill="#4D63E6" />
<rect x="64" y="59" width="9" height="2" fill="#4D63E6" />
<rect x="84" y="59" width="1" height="5" fill="#4D63E6" />
<rect x="85" y="59" width="2" height="1" fill="#5B6EE1" />
<rect x="57" y="60" width="2" height="3" fill="#4D63E6" />
<rect x="85" y="60" width="2" height="4" fill="#4D63E6" />
<rect x="87" y="60" width="2" height="1" fill="#5B6EE1" />
<rect x="56" y="61" width="1" height="2" fill="#4D63E6" />
<rect x="64" y="61" width="3" height="1" fill="#4D63E6" />
<rect x="67" y="61" width="1" height="1" fill="#5E72EF" />
<rect x="68" y="61" width="5" height="1" fill="#4D63E6" />
<rect x="87" y="61" width="1" height="4" fill="#4D63E6" />
<rect x="88" y="61" width="2" height="1" fill="#5B6EE1" />
<rect x="52" y="62" width="1" height="20" fill="#5B6EE1" />
<rect x="62" y="62" width="13" height="3" fill="#5B6EE1" />
<rect x="88" y="62" width="1" height="3" fill="#4D63E6" />
<rect x="89" y="62" width="2" height="1" fill="#5B6EE1" />
<rect x="51" y="63" width="1" height="25" fill="#5B6EE1" />
<rect x="56" y="63" width="6" height="3" fill="#5B6EE1" />
<rect x="75" y="63" width="2" height="1" fill="#5E72EF" />
<rect x="77" y="63" width="2" height="1" fill="#5B6EE1" />
<rect x="79" y="63" width="3" height="1" fill="#4D63E6" />
<rect x="82" y="63" width="2" height="1" fill="#586DEF" />
<rect x="89" y="63" width="1" height="2" fill="#4D63E6" />
<rect x="90" y="63" width="2" height="2" fill="#5B6EE1" />
<rect x="50" y="64" width="1" height="27" fill="#5B6EE1" />
<rect x="75" y="64" width="1" height="2" fill="#5B6EE1" />
<rect x="76" y="64" width="2" height="1" fill="#5E72EF" />
<rect x="78" y="64" width="4" height="1" fill="#5B6EE1" />
<rect x="82" y="64" width="1" height="4" fill="#5E72EF" />
<rect x="83" y="64" width="4" height="1" fill="#586DEF" />
<rect x="92" y="64" width="1" height="2" fill="#5B6EE1" />
<rect x="49" y="65" width="1" height="18" fill="#5B6EE1" />
<rect x="62" y="65" width="9" height="1" fill="#5B6EE1" />
<rect x="71" y="65" width="1" height="1" fill="#5E72EF" />
<rect x="72" y="65" width="3" height="1" fill="#5B6EE1" />
<rect x="76" y="65" width="1" height="2" fill="#5B6EE1" />
<rect x="77" y="65" width="1" height="5" fill="#5E72EF" />
<rect x="78" y="65" width="1" height="1" fill="#5B6EE1" />
<rect x="79" y="65" width="3" height="4" fill="#5E72EF" />
<rect x="83" y="65" width="2" height="2" fill="#5E72EF" />
<rect x="85" y="65" width="5" height="1" fill="#586DEF" />
<rect x="90" y="65" width="1" height="2" fill="#5E72EF" />
<rect x="91" y="65" width="1" height="1" fill="#5B6EE1" />
<rect x="93" y="65" width="1" height="1" fill="#5B6EE1" />
<rect x="48" y="66" width="1" height="21" fill="#5B6EE1" />
<rect x="56" y="66" width="5" height="16" fill="#5B6EE1" />
<rect x="61" y="66" width="1" height="2" fill="#5E72EF" />
<rect x="62" y="66" width="4" height="2" fill="#5B6EE1" />
<rect x="66" y="66" width="1" height="1" fill="#5E72EF" />
<rect x="67" y="66" width="5" height="4" fill="#5B6EE1" />
<rect x="72" y="66" width="2" height="1" fill="#5E72EF" />
<rect x="74" y="66" width="1" height="3" fill="#5B6EE1" />
<rect x="75" y="66" width="1" height="1" fill="#5E72EF" />
<rect x="78" y="66" width="1" height="4" fill="#5E72EF" />
<rect x="85" y="66" width="2" height="1" fill="#5E72EF" />
<rect x="87" y="66" width="3" height="1" fill="#586DEF" />
<rect x="91" y="66" width="5" height="1" fill="#2E43C3" />
<rect x="47" y="67" width="1" height="25" fill="#5B6EE1" />
<rect x="66" y="67" width="1" height="1" fill="#5B6EE1" />
<rect x="72" y="67" width="1" height="4" fill="#5B6EE1" />
<rect x="73" y="67" width="1" height="8" fill="#5E72EF" />
<rect x="75" y="67" width="1" height="1" fill="#5B6EE1" />
<rect x="76" y="67" width="1" height="4" fill="#5E72EF" />
<rect x="83" y="67" width="1" height="1" fill="#5E72EF" />
<rect x="84" y="67" width="1" height="1" fill="#5B6EE1" />
<rect x="85" y="67" width="8" height="2" fill="#2E43C3" />
<rect x="93" y="67" width="3" height="1" fill="#3047D3" />
<rect x="61" y="68" width="4" height="2" fill="#5B6EE1" />
<rect x="65" y="68" width="2" height="1" fill="#5E72EF" />
<rect x="75" y="68" width="1" height="4" fill="#5E72EF" />
<rect x="82" y="68" width="3" height="1" fill="#2E43C3" />
<rect x="93" y="68" width="1" height="3" fill="#2E43C3" />
<rect x="94" y="68" width="2" height="2" fill="#3047D3" />
<rect x="46" y="69" width="1" height="23" fill="#5B6EE1" />
<rect x="65" y="69" width="1" height="6" fill="#5B6EE1" />
<rect x="66" y="69" width="1" height="2" fill="#5E72EF" />
<rect x="74" y="69" width="1" height="3" fill="#5E72EF" />
<rect x="79" y="69" width="5" height="1" fill="#2E43C3" />
<rect x="84" y="69" width="2" height="8" fill="#2A3FC0" />
<rect x="86" y="69" width="2" height="1" fill="#2E43C3" />
<rect x="88" y="69" width="4" height="11" fill="#2A3FC0" />
<rect x="92" y="69" width="1" height="1" fill="#2E43C3" />
<rect x="96" y="69" width="1" height="3" fill="#3047D3" />
<rect x="61" y="70" width="1" height="7" fill="#5B6EE1" />
<rect x="62" y="70" width="1" height="1" fill="#5E72EF" />
<rect x="63" y="70" width="2" height="2" fill="#5B6EE1" />
<rect x="67" y="70" width="1" height="2" fill="#5E72EF" />
<rect x="68" y="70" width="4" height="1" fill="#5B6EE1" />
<rect x="77" y="70" width="1" height="1" fill="#5B6EE1" />
<rect x="78" y="70" width="5" height="9" fill="#2E43C3" />
<rect x="83" y="70" width="1" height="6" fill="#2A3FC0" />
<rect x="86" y="70" width="1" height="2" fill="#2A3FC0" />
<rect x="87" y="70" width="1" height="1" fill="#556BF4" />
<rect x="92" y="70" width="1" height="17" fill="#2A3FC0" />
<rect x="94" y="70" width="1" height="2" fill="#2E43C3" />
<rect x="95" y="70" width="1" height="1" fill="#3047D3" />
<rect x="45" y="71" width="1" height="21" fill="#5B6EE1" />
<rect x="62" y="71" width="1" height="6" fill="#5B6EE1" />
<rect x="66" y="71" width="1" height="6" fill="#5B6EE1" />
<rect x="68" y="71" width="1" height="3" fill="#5E72EF" />
<rect x="69" y="71" width="3" height="1" fill="#5B6EE1" />
<rect x="72" y="71" width="1" height="4" fill="#5E72EF" />
<rect x="76" y="71" width="2" height="1" fill="#2E43C3" />
<rect x="87" y="71" width="1" height="29" fill="#2A3FC0" />
<rect x="93" y="71" width="1" height="25" fill="#2A3FC0" />
<rect x="95" y="71" width="1" height="2" fill="#2E43C3" />
<rect x="97" y="71" width="1" height="5" fill="#3047D3" />
<rect x="63" y="72" width="1" height="2" fill="#5E72EF" />
<rect x="64" y="72" width="1" height="1" fill="#5B6EE1" />
<rect x="67" y="72" width="1" height="2" fill="#5B6EE1" />
<rect x="69" y="72" width="1" height="7" fill="#5E72EF" />
<rect x="70" y="72" width="1" height="1" fill="#5B6EE1" />
<rect x="71" y="72" width="1" height="2" fill="#5E72EF" />
<rect x="74" y="72" width="1" height="1" fill="#5B6EE1" />
<rect x="75" y="72" width="2" height="10" fill="#2E43C3" />
<rect x="77" y="72" width="1" height="1" fill="#5E72EF" />
<rect x="86" y="72" width="1" height="1" fill="#556BF4" />
<rect x="94" y="72" width="1" height="23" fill="#2A3FC0" />
<rect x="96" y="72" width="1" height="2" fill="#2E43C3" />
<rect x="44" y="73" width="1" height="17" fill="#5B6EE1" />
<rect x="64" y="73" width="1" height="10" fill="#5E72EF" />
<rect x="70" y="73" width="1" height="5" fill="#5E72EF" />
<rect x="74" y="73" width="1" height="32" fill="#2E43C3" />
<rect x="77" y="73" width="1" height="24" fill="#2E43C3" />
<rect x="86" y="73" width="1" height="7" fill="#2A3FC0" />
<rect x="95" y="73" width="1" height="21" fill="#2A3FC0" />
<rect x="98" y="73" width="1" height="7" fill="#3047D3" />
<rect x="63" y="74" width="1" height="5" fill="#5B6EE1" />
<rect x="67" y="74" width="1" height="6" fill="#5E72EF" />
<rect x="68" y="74" width="1" height="1" fill="#5B6EE1" />
<rect x="71" y="74" width="1" height="2" fill="#5B6EE1" />
<rect x="96" y="74" width="1" height="18" fill="#2A3FC0" />
<rect x="65" y="75" width="1" height="6" fill="#5E72EF" />
<rect x="68" y="75" width="1" height="4" fill="#5E72EF" />
<rect x="72" y="75" width="2" height="25" fill="#2E43C3" />
<rect x="71" y="76" width="1" height="29" fill="#2E43C3" />
<rect x="83" y="76" width="1" height="20" fill="#2E43C3" />
<rect x="97" y="76" width="1" height="3" fill="#2E43C3" />
<rect x="43" y="77" width="1" height="9" fill="#5B6EE1" />
<rect x="54" y="77" width="1" height="1" fill="#5E72EF" />
<rect x="61" y="77" width="2" height="1" fill="#5E72EF" />
<rect x="66" y="77" width="1" height="4" fill="#5E72EF" />
<rect x="84" y="77" width="2" height="3" fill="#2E43C3" />
<rect x="99" y="77" width="1" height="9" fill="#3047D3" />
<rect x="54" y="78" width="1" height="7" fill="#5B6EE1" />
<rect x="61" y="78" width="1" height="6" fill="#5E72EF" />
<rect x="62" y="78" width="1" height="3" fill="#5B6EE1" />
<rect x="70" y="78" width="1" height="10" fill="#2E43C3" />
<rect x="63" y="79" width="1" height="4" fill="#5E72EF" />
<rect x="68" y="79" width="2" height="2" fill="#2E43C3" />
<rect x="78" y="79" width="3" height="13" fill="#2E43C3" />
<rect x="81" y="79" width="1" height="1" fill="#5E72EF" />
<rect x="82" y="79" width="1" height="24" fill="#2E43C3" />
<rect x="97" y="79" width="1" height="12" fill="#2A3FC0" />
<rect x="53" y="80" width="1" height="1" fill="#5E72EF" />
<rect x="67" y="80" width="1" height="24" fill="#2E43C3" />
<rect x="81" y="80" width="1" height="3" fill="#2E43C3" />
<rect x="84" y="80" width="1" height="1" fill="#5E72EF" />
<rect x="85" y="80" width="2" height="4" fill="#2E43C3" />
<rect x="88" y="80" width="3" height="12" fill="#2A3FC0" />
<rect x="91" y="80" width="1" height="1" fill="#556BF4" />
<rect x="98" y="80" width="1" height="3" fill="#2A3FC0" />
<rect x="53" y="81" width="1" height="3" fill="#5B6EE1" />
<rect x="62" y="81" width="1" height="3" fill="#5E72EF" />
<rect x="65" y="81" width="2" height="4" fill="#2E43C3" />
<rect x="68" y="81" width="1" height="1" fill="#5E72EF" />
<rect x="69" y="81" width="1" height="13" fill="#2E43C3" />
<rect x="84" y="81" width="1" height="9" fill="#2E43C3" />
<rect x="91" y="81" width="1" height="17" fill="#2A3FC0" />
<rect x="52" y="82" width="1" height="3" fill="#5E72EF" />
<rect x="56" y="82" width="3" height="1" fill="#5B6EE1" />
<rect x="59" y="82" width="2" height="3" fill="#5E72EF" />
<rect x="68" y="82" width="1" height="23" fill="#2E43C3" />
<rect x="75" y="82" width="1" height="23" fill="#2E43C3" />
<rect x="76" y="82" width="1" height="1" fill="#5E72EF" />
<rect x="49" y="83" width="1" height="1" fill="#5E72EF" />
<rect x="56" y="83" width="2" height="1" fill="#5B6EE1" />
<rect x="58" y="83" width="1" height="4" fill="#5E72EF" />
<rect x="63" y="83" width="2" height="20" fill="#2E43C3" />
<rect x="76" y="83" width="1" height="22" fill="#2E43C3" />
<rect x="81" y="83" width="1" height="1" fill="#5E72EF" />
<rect x="98" y="83" width="1" height="7" fill="#3047D3" />
<rect x="49" y="84" width="1" height="7" fill="#5B6EE1" />
<rect x="53" y="84" width="1" height="6" fill="#5E72EF" />
<rect x="56" y="84" width="1" height="1" fill="#5B6EE1" />
<rect x="57" y="84" width="1" height="4" fill="#5E72EF" />
<rect x="61" y="84" width="1" height="1" fill="#5B6EE1" />
<rect x="62" y="84" width="1" height="19" fill="#2E43C3" />
<rect x="81" y="84" width="1" height="20" fill="#2E43C3" />
<rect x="85" y="84" width="1" height="2" fill="#2E43C3" />
<rect x="86" y="84" width="1" height="17" fill="#2A3FC0" />
<rect x="52" y="85" width="1" height="1" fill="#5B6EE1" />
<rect x="54" y="85" width="3" height="3" fill="#5E72EF" />
<rect x="59" y="85" width="1" height="1" fill="#5E72EF" />
<rect x="60" y="85" width="1" height="1" fill="#5B6EE1" />
<rect x="61" y="85" width="1" height="17" fill="#2E43C3" />
<rect x="65" y="85" width="1" height="19" fill="#2E43C3" />
<rect x="66" y="85" width="1" height="1" fill="#5E72EF" />
<rect x="52" y="86" width="1" height="4" fill="#5E72EF" />
<rect x="59" y="86" width="2" height="15" fill="#2E43C3" />
<rect x="66" y="86" width="1" height="18" fill="#2E43C3" />
<rect x="85" y="86" width="1" height="8" fill="#2A3FC0" />
<rect x="48" y="87" width="1" height="1" fill="#5E72EF" />
<rect x="58" y="87" width="1" height="14" fill="#2E43C3" />
<rect x="92" y="87" width="1" height="1" fill="#556BF4" />
<rect x="48" y="88" width="1" height="2" fill="#5B6EE1" />
<rect x="51" y="88" width="1" height="2" fill="#5E72EF" />
<rect x="54" y="88" width="2" height="1" fill="#5E72EF" />
<rect x="56" y="88" width="2" height="12" fill="#2E43C3" />
<rect x="70" y="88" width="1" height="1" fill="#5E72EF" />
<rect x="92" y="88" width="1" height="8" fill="#2A3FC0" />
<rect x="54" y="89" width="2" height="9" fill="#2E43C3" />
<rect x="70" y="89" width="1" height="2" fill="#2E43C3" />
<rect x="48" y="90" width="1" height="1" fill="#5E72EF" />
<rect x="51" y="90" width="3" height="5" fill="#2E43C3" />
<rect x="84" y="90" width="1" height="3" fill="#2A3FC0" />
<rect x="48" y="91" width="3" height="1" fill="#2E43C3" />
<rect x="70" y="91" width="1" height="1" fill="#5E72EF" />
<rect x="97" y="91" width="1" height="1" fill="#3047D3" />
<rect x="46" y="92" width="2" height="1" fill="#2E43C3" />
<rect x="48" y="92" width="1" height="5" fill="#3047D3" />
<rect x="49" y="92" width="2" height="2" fill="#2E43C3" />
<rect x="70" y="92" width="1" height="3" fill="#2E43C3" />
<rect x="78" y="92" width="1" height="12" fill="#2E43C3" />
<rect x="79" y="92" width="1" height="1" fill="#5E72EF" />
<rect x="80" y="92" width="1" height="12" fill="#2E43C3" />
<rect x="88" y="92" width="1" height="7" fill="#2A3FC0" />
<rect x="89" y="92" width="1" height="1" fill="#556BF4" />
<rect x="90" y="92" width="1" height="7" fill="#2A3FC0" />
<rect x="96" y="92" width="1" height="2" fill="#3047D3" />
<rect x="46" y="93" width="2" height="1" fill="#3047D3" />
<rect x="79" y="93" width="1" height="11" fill="#2E43C3" />
<rect x="84" y="93" width="1" height="2" fill="#2E43C3" />
<rect x="89" y="93" width="1" height="6" fill="#2A3FC0" />
<rect x="47" y="94" width="1" height="2" fill="#3047D3" />
<rect x="49" y="94" width="1" height="4" fill="#3047D3" />
<rect x="50" y="94" width="1" height="1" fill="#2E43C3" />
<rect x="69" y="94" width="1" height="1" fill="#5E72EF" />
<rect x="85" y="94" width="1" height="1" fill="#2E43C3" />
<rect x="95" y="94" width="1" height="2" fill="#3047D3" />
<rect x="50" y="95" width="2" height="4" fill="#3047D3" />
<rect x="52" y="95" width="2" height="1" fill="#2E43C3" />
<rect x="69" y="95" width="1" height="10" fill="#2E43C3" />
<rect x="70" y="95" width="1" height="1" fill="#5E72EF" />
<rect x="84" y="95" width="2" height="6" fill="#2A3FC0" />
<rect x="94" y="95" width="1" height="2" fill="#3047D3" />
<rect x="52" y="96" width="1" height="5" fill="#3047D3" />
<rect x="53" y="96" width="1" height="1" fill="#2E43C3" />
<rect x="70" y="96" width="1" height="9" fill="#2E43C3" />
<rect x="83" y="96" width="1" height="4" fill="#2A3FC0" />
<rect x="92" y="96" width="2" height="2" fill="#3047D3" />
<rect x="53" y="97" width="1" height="5" fill="#3047D3" />
<rect x="77" y="97" width="1" height="1" fill="#5E72EF" />
<rect x="54" y="98" width="1" height="5" fill="#3047D3" />
<rect x="55" y="98" width="1" height="1" fill="#2E43C3" />
<rect x="77" y="98" width="1" height="7" fill="#2E43C3" />
<rect x="91" y="98" width="2" height="1" fill="#3047D3" />
<rect x="51" y="99" width="1" height="1" fill="#3047D3" />
<rect x="55" y="99" width="1" height="4" fill="#3047D3" />
<rect x="88" y="99" width="4" height="1" fill="#3047D3" />
<rect x="56" y="100" width="2" height="4" fill="#3047D3" />
<rect x="72" y="100" width="1" height="1" fill="#5E72EF" />
<rect x="73" y="100" width="1" height="5" fill="#2E43C3" />
<rect x="83" y="100" width="1" height="2" fill="#2E43C3" />
<rect x="87" y="100" width="4" height="1" fill="#3047D3" />
<rect x="58" y="101" width="2" height="4" fill="#3047D3" />
<rect x="60" y="101" width="1" height="1" fill="#2E43C3" />
<rect x="72" y="101" width="1" height="4" fill="#2E43C3" />
<rect x="84" y="101" width="6" height="1" fill="#3047D3" />
<rect x="60" y="102" width="2" height="4" fill="#3047D3" />
<rect x="83" y="102" width="6" height="1" fill="#3047D3" />
<rect x="62" y="103" width="2" height="4" fill="#3047D3" />
<rect x="64" y="103" width="1" height="1" fill="#2E43C3" />
<rect x="82" y="103" width="5" height="1" fill="#3047D3" />
<rect x="57" y="104" width="1" height="1" fill="#3047D3" />
<rect x="64" y="104" width="4" height="3" fill="#3047D3" />
<rect x="78" y="104" width="8" height="1" fill="#3047D3" />
<rect x="68" y="105" width="15" height="1" fill="#3047D3" />
<rect x="68" y="106" width="13" height="1" fill="#3047D3" />
<rect x="66" y="107" width="11" height="1" fill="#3047D3" />
</svg>