<?xml version="1.0" encoding="UTF-8" ?>
<svg version="1.1" width="128" height="128" xmlns="http://www.w3.org/2000/svg" shape-rendering="crispEdges">
<rect x="62" y="31" width="2" height="2" fill="#DF7126" />
<rect x="75" y="32" width="3" height="1" fill="#C3601D" />
<rect x="77" y="33" width="8" height="1" fill="#C3601D" />
<rect x="80" y="34" width="2" height="1" fill="#C3601D" />
<rect x="82" y="34" width="1" height="1" fill="#DF7126" />
<rect x="83" y="34" width="5" height="2" fill="#C3601D" />
<rect x="72" y="35" width="6" height="3" fill="#DF7126" />
<rect x="80" y="35" width="1" height="4" fill="#DF7126" />
<rect x="81" y="35" width="2" height="1" fill="#C3601D" />
<rect x="78" y="36" width="2" height="3" fill="#DF7126" />
<rect x="81" y="36" width="4" height="1" fill="#DF7126" />
<rect x="85" y="36" width="2" height="1" fill="#C3601D" />
<rect x="87" y="36" width="2" height="1" fill="#DF7126" />
<rect x="40" y="37" width="1" height="1" fill="#C3601D" />
<rect x="45" y="37" width="10" height="1" fill="#C3601D" />
<rect x="63" y="37" width="9" height="1" fill="#DF7126" />
<rect x="81" y="37" width="2" height="2" fill="#DF7126" />
<rect x="83" y="37" width="5" height="2" fill="#E18331" />
<rect x="88" y="37" width="6" height="1" fill="#DF7126" />
<rect x="51" y="38" width="2" height="1" fill="#C3601D" />
<rect x="54" y="38" width="5" height="2" fill="#C3601D" />
<rect x="60" y="38" width="14" height="1" fill="#C3601D" />
<rect x="74" y="38" width="4" height="1" fill="#DF7126" />
<rect x="88" y="38" width="4" height="2" fill="#E18331" />
<rect x="92" y="38" width="5" height="4" fill="#DF7126" />
<rect x="26" y="39" width="1" height="1" fill="#C3601D" />
<rect x="52" y="39" width="2" height="1" fill="#C3601D" />
<rect x="59" y="39" width="5" height="1" fill="#C3601D" />
<rect x="64" y="39" width="7" height="10" fill="#DF7126" />
<rect x="71" y="39" width="12" height="2" fill="#E18331" />
<rect x="83" y="39" width="3" height="2" fill="#DF7126" />
<rect x="86" y="39" width="2" height="1" fill="#E18331" />
<rect x="97" y="39" width="3" height="5" fill="#DF7126" />
<rect x="52" y="40" width="12" height="1" fill="#DF7126" />
<rect x="86" y="40" width="6" height="1" fill="#DF7126" />
<rect x="100" y="40" width="2" height="1" fill="#DF7126" />
<rect x="41" y="41" width="3" height="2" fill="#DF7126" />
<rect x="54" y="41" width="10" height="10" fill="#DF7126" />
<rect x="71" y="41" width="5" height="8" fill="#DF7126" />
<rect x="76" y="41" width="11" height="1" fill="#E18331" />
<rect x="87" y="41" width="5" height="1" fill="#DF7126" />
<rect x="100" y="41" width="1" height="5" fill="#DF7126" />
<rect x="102" y="41" width="2" height="1" fill="#DF7126" />
<rect x="51" y="42" width="3" height="3" fill="#DF7126" />
<rect x="76" y="42" width="1" height="6" fill="#DF7126" />
<rect x="77" y="42" width="17" height="1" fill="#E18331" />
<rect x="94" y="42" width="3" height="1" fill="#DF7126" />
<rect x="101" y="42" width="2" height="6" fill="#DF7126" />
<rect x="104" y="42" width="1" height="6" fill="#DF7126" />
<rect x="50" y="43" width="1" height="2" fill="#DF7126" />
<rect x="77" y="43" width="8" height="5" fill="#DF7126" />
<rect x="85" y="43" width="10" height="1" fill="#E18331" />
<rect x="95" y="43" width="2" height="1" fill="#DF7126" />
<rect x="103" y="43" width="1" height="5" fill="#DF7126" />
<rect x="105" y="43" width="2" height="6" fill="#DF7126" />
<rect x="31" y="44" width="5" height="5" fill="#DF7126" />
<rect x="49" y="44" width="1" height="1" fill="#DF7126" />
<rect x="85" y="44" width="7" height="3" fill="#DF7126" />
<rect x="92" y="44" width="3" height="1" fill="#E18331" />
<rect x="95" y="44" width="3" height="2" fill="#B5621B" />
<rect x="98" y="44" width="2" height="1" fill="#DF7126" />
<rect x="107" y="44" width="1" height="6" fill="#DF7126" />
<rect x="6" y="45" width="2" height="1" fill="#C3601D" />
<rect x="29" y="45" width="2" height="10" fill="#DF7126" />
<rect x="36" y="45" width="5" height="4" fill="#DF7126" />
<rect x="41" y="45" width="12" height="2" fill="#E18331" />
<rect x="53" y="45" width="1" height="14" fill="#DF7126" />
<rect x="92" y="45" width="3" height="2" fill="#DF7126" />
<rect x="98" y="45" width="2" height="3" fill="#B5621B" />
<rect x="108" y="45" width="1" height="6" fill="#DF7126" />
<rect x="7" y="46" width="6" height="1" fill="#C3601D" />
<rect x="28" y="46" width="1" height="8" fill="#DF7126" />
<rect x="95" y="46" width="1" height="2" fill="#DF7126" />
<rect x="96" y="46" width="2" height="1" fill="#B5621B" />
<rect x="100" y="46" width="1" height="3" fill="#B5621B" />
<rect x="109" y="46" width="1" height="5" fill="#DF7126" />
<rect x="27" y="47" width="1" height="7" fill="#DF7126" />
<rect x="41" y="47" width="12" height="1" fill="#DF7126" />
<rect x="85" y="47" width="6" height="1" fill="#DF7126" />
<rect x="91" y="47" width="2" height="3" fill="#B5621B" />
<rect x="93" y="47" width="2" height="1" fill="#DF7126" />
<rect x="96" y="47" width="2" height="1" fill="#DF7126" />
<rect x="110" y="47" width="1" height="5" fill="#DF7126" />
<rect x="26" y="48" width="1" height="6" fill="#DF7126" />
<rect x="41" y="48" width="5" height="2" fill="#E18331" />
<rect x="46" y="48" width="7" height="9" fill="#DF7126" />
<rect x="76" y="48" width="10" height="2" fill="#D6681D" />
<rect x="86" y="48" width="5" height="1" fill="#DF7126" />
<rect x="93" y="48" width="4" height="2" fill="#B5621B" />
<rect x="97" y="48" width="2" height="4" fill="#DF7126" />
<rect x="99" y="48" width="1" height="1" fill="#B5621B" />
<rect x="101" y="48" width="1" height="8" fill="#DF7126" />
<rect x="102" y="48" width="3" height="2" fill="#D6681D" />
<rect x="111" y="48" width="1" height="1" fill="#DF7126" />
<rect x="25" y="49" width="1" height="5" fill="#DF7126" />
<rect x="31" y="49" width="3" height="9" fill="#DF7126" />
<rect x="34" y="49" width="7" height="2" fill="#E18331" />
<rect x="64" y="49" width="5" height="1" fill="#DF7126" />
<rect x="69" y="49" width="7" height="1" fill="#D6681D" />
<rect x="86" y="49" width="5" height="2" fill="#D6681D" />
<rect x="99" y="49" width="2" height="7" fill="#DF7126" />
<rect x="105" y="49" width="2" height="2" fill="#D6681D" />
<rect x="111" y="49" width="1" height="2" fill="#D6681D" />
<rect x="112" y="49" width="1" height="1" fill="#DF7126" />
<rect x="24" y="50" width="1" height="4" fill="#DF7126" />
<rect x="41" y="50" width="2" height="1" fill="#E18331" />
<rect x="43" y="50" width="3" height="8" fill="#DF7126" />
<rect x="64" y="50" width="3" height="1" fill="#DF7126" />
<rect x="67" y="50" width="8" height="2" fill="#D6681D" />
<rect x="75" y="50" width="2" height="1" fill="#DF7126" />
<rect x="77" y="50" width="2" height="1" fill="#D6681D" />
<rect x="79" y="50" width="5" height="1" fill="#C3601D" />
<rect x="84" y="50" width="2" height="1" fill="#D6681D" />
<rect x="91" y="50" width="4" height="1" fill="#DF7126" />
<rect x="95" y="50" width="2" height="1" fill="#B5621B" />
<rect x="102" y="50" width="3" height="7" fill="#DF7126" />
<rect x="107" y="50" width="1" height="3" fill="#E18331" />
<rect x="112" y="50" width="1" height="2" fill="#D6681D" />
<rect x="113" y="50" width="1" height="1" fill="#DF7126" />
<rect x="8" y="51" width="2" height="1" fill="#C3601D" />
<rect x="11" y="51" width="13" height="3" fill="#DF7126" />
<rect x="34" y="51" width="9" height="13" fill="#DF7126" />
<rect x="54" y="51" width="1" height="8" fill="#DF7126" />
<rect x="55" y="51" width="12" height="1" fill="#D6681D" />
<rect x="75" y="51" width="3" height="1" fill="#D6681D" />
<rect x="78" y="51" width="5" height="8" fill="#DF7126" />
<rect x="83" y="51" width="4" height="1" fill="#C3601D" />
<rect x="87" y="51" width="6" height="1" fill="#D6681D" />
<rect x="93" y="51" width="4" height="1" fill="#DF7126" />
<rect x="105" y="51" width="1" height="15" fill="#DF7126" />
<rect x="106" y="51" width="1" height="1" fill="#E18331" />
<rect x="108" y="51" width="2" height="3" fill="#E18331" />
<rect x="111" y="51" width="1" height="2" fill="#DF7126" />
<rect x="113" y="51" width="1" height="2" fill="#D6681D" />
<rect x="6" y="52" width="3" height="1" fill="#C3601D" />
<rect x="10" y="52" width="1" height="2" fill="#DF7126" />
<rect x="55" y="52" width="23" height="6" fill="#DF7126" />
<rect x="83" y="52" width="2" height="7" fill="#DF7126" />
<rect x="85" y="52" width="1" height="1" fill="#D6681D" />
<rect x="86" y="52" width="3" height="1" fill="#C3601D" />
<rect x="89" y="52" width="2" height="1" fill="#D6681D" />
<rect x="91" y="52" width="1" height="7" fill="#DF7126" />
<rect x="92" y="52" width="6" height="1" fill="#D6681D" />
<rect x="98" y="52" width="1" height="4" fill="#DF7126" />
<rect x="106" y="52" width="1" height="13" fill="#DF7126" />
<rect x="110" y="52" width="1" height="5" fill="#E18331" />
<rect x="112" y="52" width="1" height="3" fill="#DF7126" />
<rect x="114" y="52" width="1" height="2" fill="#D6681D" />
<rect x="85" y="53" width="6" height="6" fill="#DF7126" />
<rect x="92" y="53" width="6" height="5" fill="#DF7126" />
<rect x="107" y="53" width="1" height="11" fill="#DF7126" />
<rect x="111" y="53" width="1" height="5" fill="#E18331" />
<rect x="113" y="53" width="1" height="15" fill="#DF7126" />
<rect x="115" y="53" width="1" height="2" fill="#D6681D" />
<rect x="14" y="54" width="9" height="1" fill="#DF7126" />
<rect x="23" y="54" width="6" height="1" fill="#D69E1D" />
<rect x="108" y="54" width="1" height="9" fill="#DF7126" />
<rect x="109" y="54" width="1" height="1" fill="#E18331" />
<rect x="114" y="54" width="1" height="13" fill="#DF7126" />
<rect x="19" y="55" width="10" height="1" fill="#DF7126" />
<rect x="29" y="55" width="2" height="1" fill="#D69E1D" />
<rect x="109" y="55" width="1" height="8" fill="#DF7126" />
<rect x="112" y="55" width="1" height="3" fill="#E18331" />
<rect x="115" y="55" width="1" height="5" fill="#DF7126" />
<rect x="9" y="56" width="3" height="2" fill="#DF7126" />
<rect x="25" y="56" width="6" height="1" fill="#DF7126" />
<rect x="98" y="56" width="4" height="1" fill="#E18331" />
<rect x="116" y="56" width="1" height="6" fill="#DF7126" />
<rect x="13" y="57" width="7" height="2" fill="#DF7126" />
<rect x="27" y="57" width="4" height="1" fill="#DF7126" />
<rect x="46" y="57" width="5" height="1" fill="#DF7126" />
<rect x="52" y="57" width="1" height="1" fill="#DF7126" />
<rect x="98" y="57" width="1" height="2" fill="#B5621B" />
<rect x="99" y="57" width="4" height="3" fill="#E18331" />
<rect x="103" y="57" width="2" height="2" fill="#DF7126" />
<rect x="110" y="57" width="1" height="6" fill="#DF7126" />
<rect x="32" y="58" width="2" height="6" fill="#DF7126" />
<rect x="43" y="58" width="10" height="1" fill="#C3601D" />
<rect x="55" y="58" width="9" height="1" fill="#DF7126" />
<rect x="64" y="58" width="5" height="1" fill="#C3601D" />
<rect x="69" y="58" width="7" height="1" fill="#B5621B" />
<rect x="76" y="58" width="2" height="1" fill="#DF7126" />
<rect x="92" y="58" width="1" height="1" fill="#DF7126" />
<rect x="93" y="58" width="5" height="1" fill="#B5621B" />
<rect x="111" y="58" width="2" height="10" fill="#DF7126" />
<rect x="28" y="59" width="4" height="6" fill="#DF7126" />
<rect x="43" y="59" width="9" height="5" fill="#DF7126" />
<rect x="52" y="59" width="12" height="1" fill="#C3601D" />
<rect x="64" y="59" width="3" height="1" fill="#E18331" />
<rect x="67" y="59" width="7" height="1" fill="#B5621B" />
<rect x="74" y="59" width="1" height="1" fill="#DF7126" />
<rect x="75" y="59" width="3" height="1" fill="#B5621B" />
<rect x="78" y="59" width="12" height="1" fill="#D6681D" />
<rect x="90" y="59" width="9" height="1" fill="#E18331" />
<rect x="103" y="59" width="1" height="2" fill="#D6681D" />
<rect x="104" y="59" width="1" height="7" fill="#DF7126" />
<rect x="25" y="60" width="3" height="4" fill="#DF7126" />
<rect x="52" y="60" width="6" height="9" fill="#DF7126" />
<rect x="58" y="60" width="1" height="1" fill="#C3601D" />
<rect x="59" y="60" width="7" height="4" fill="#DF7126" />
<rect x="66" y="60" width="7" height="1" fill="#E18331" />
<rect x="73" y="60" width="3" height="1" fill="#B5621B" />
<rect x="76" y="60" width="10" height="12" fill="#DF7126" />
<rect x="86" y="60" width="6" height="1" fill="#D6681D" />
<rect x="92" y="60" width="4" height="1" fill="#E18331" />
<rect x="96" y="60" width="7" height="1" fill="#D6681D" />
<rect x="115" y="60" width="1" height="3" fill="#D6681D" />
<rect x="58" y="61" width="1" height="8" fill="#DF7126" />
<rect x="66" y="61" width="3" height="3" fill="#DF7126" />
<rect x="69" y="61" width="5" height="1" fill="#E18331" />
<rect x="74" y="61" width="2" height="16" fill="#DF7126" />
<rect x="86" y="61" width="4" height="10" fill="#DF7126" />
<rect x="90" y="61" width="7" height="1" fill="#D6681D" />
<rect x="97" y="61" width="7" height="6" fill="#DF7126" />
<rect x="19" y="62" width="6" height="2" fill="#DF7126" />
<rect x="69" y="62" width="5" height="3" fill="#DF7126" />
<rect x="90" y="62" width="7" height="6" fill="#DF7126" />
<rect x="116" y="62" width="1" height="4" fill="#D6681D" />
<rect x="108" y="63" width="3" height="1" fill="#D6681D" />
<rect x="115" y="63" width="1" height="3" fill="#DF7126" />
<rect x="19" y="64" width="2" height="5" fill="#DF7126" />
<rect x="33" y="64" width="6" height="4" fill="#DF7126" />
<rect x="39" y="64" width="5" height="2" fill="#E18331" />
<rect x="44" y="64" width="8" height="1" fill="#DF7126" />
<rect x="59" y="64" width="4" height="2" fill="#DF7126" />
<rect x="63" y="64" width="4" height="2" fill="#D6681D" />
<rect x="67" y="64" width="2" height="1" fill="#DF7126" />
<rect x="107" y="64" width="2" height="1" fill="#D6681D" />
<rect x="109" y="64" width="2" height="3" fill="#B5621B" />
<rect x="12" y="65" width="7" height="2" fill="#DF7126" />
<rect x="44" y="65" width="1" height="2" fill="#E18331" />
<rect x="45" y="65" width="7" height="4" fill="#DF7126" />
<rect x="67" y="65" width="3" height="1" fill="#D6681D" />
<rect x="70" y="65" width="4" height="12" fill="#DF7126" />
<rect x="106" y="65" width="2" height="1" fill="#D6681D" />
<rect x="108" y="65" width="1" height="5" fill="#B5621B" />
<rect x="39" y="66" width="3" height="4" fill="#DF7126" />
<rect x="42" y="66" width="2" height="1" fill="#E18331" />
<rect x="59" y="66" width="1" height="3" fill="#DF7126" />
<rect x="60" y="66" width="10" height="1" fill="#E18331" />
<rect x="104" y="66" width="3" height="1" fill="#D6681D" />
<rect x="107" y="66" width="1" height="5" fill="#B5621B" />
<rect x="115" y="66" width="1" height="2" fill="#D6681D" />
<rect x="116" y="66" width="1" height="1" fill="#DF7126" />
<rect x="17" y="67" width="2" height="2" fill="#DF7126" />
<rect x="21" y="67" width="3" height="2" fill="#DF7126" />
<rect x="42" y="67" width="3" height="3" fill="#DF7126" />
<rect x="60" y="67" width="6" height="1" fill="#E18331" />
<rect x="66" y="67" width="3" height="3" fill="#D6681D" />
<rect x="69" y="67" width="1" height="1" fill="#E18331" />
<rect x="97" y="67" width="4" height="1" fill="#DF7126" />
<rect x="101" y="67" width="5" height="1" fill="#D6681D" />
<rect x="106" y="67" width="1" height="1" fill="#DF7126" />
<rect x="109" y="67" width="1" height="2" fill="#B5621B" />
<rect x="110" y="67" width="1" height="9" fill="#DF7126" />
<rect x="114" y="67" width="1" height="2" fill="#D6681D" />
<rect x="34" y="68" width="5" height="1" fill="#DF7126" />
<rect x="60" y="68" width="4" height="1" fill="#DF7126" />
<rect x="64" y="68" width="2" height="3" fill="#D6681D" />
<rect x="69" y="68" width="1" height="1" fill="#D6681D" />
<rect x="90" y="68" width="4" height="2" fill="#DF7126" />
<rect x="94" y="68" width="11" height="1" fill="#D6681D" />
<rect x="105" y="68" width="1" height="1" fill="#DF7126" />
<rect x="106" y="68" width="1" height="4" fill="#B5621B" />
<rect x="111" y="68" width="1" height="1" fill="#DF7126" />
<rect x="112" y="68" width="2" height="1" fill="#D6681D" />
<rect x="115" y="68" width="1" height="4" fill="#DF7126" />
<rect x="29" y="69" width="2" height="1" fill="#DF7126" />
<rect x="35" y="69" width="4" height="1" fill="#DF7126" />
<rect x="45" y="69" width="5" height="2" fill="#D6681D" />
<rect x="50" y="69" width="2" height="1" fill="#DF7126" />
<rect x="52" y="69" width="12" height="1" fill="#D6681D" />
<rect x="69" y="69" width="1" height="5" fill="#DF7126" />
<rect x="94" y="69" width="5" height="1" fill="#DF7126" />
<rect x="99" y="69" width="3" height="1" fill="#D6681D" />
<rect x="102" y="69" width="3" height="1" fill="#E18331" />
<rect x="105" y="69" width="1" height="3" fill="#B5621B" />
<rect x="109" y="69" width="1" height="8" fill="#DF7126" />
<rect x="111" y="69" width="2" height="1" fill="#D6681D" />
<rect x="113" y="69" width="2" height="4" fill="#DF7126" />
<rect x="26" y="70" width="4" height="1" fill="#C3601D" />
<rect x="30" y="70" width="1" height="1" fill="#DF7126" />
<rect x="32" y="70" width="7" height="1" fill="#C3601D" />
<rect x="39" y="70" width="1" height="1" fill="#DF7126" />
<rect x="41" y="70" width="3" height="1" fill="#DF7126" />
<rect x="44" y="70" width="1" height="1" fill="#D6681D" />
<rect x="50" y="70" width="4" height="2" fill="#D6681D" />
<rect x="54" y="70" width="3" height="1" fill="#DF7126" />
<rect x="57" y="70" width="7" height="1" fill="#D6681D" />
<rect x="66" y="70" width="3" height="3" fill="#DF7126" />
<rect x="90" y="70" width="3" height="1" fill="#DF7126" />
<rect x="93" y="70" width="7" height="1" fill="#D6681D" />
<rect x="100" y="70" width="3" height="1" fill="#E18331" />
<rect x="103" y="70" width="2" height="2" fill="#B5621B" />
<rect x="108" y="70" width="1" height="7" fill="#DF7126" />
<rect x="111" y="70" width="1" height="1" fill="#D6681D" />
<rect x="112" y="70" width="1" height="5" fill="#DF7126" />
<rect x="43" y="71" width="5" height="4" fill="#DF7126" />
<rect x="48" y="71" width="2" height="1" fill="#D6681D" />
<rect x="54" y="71" width="1" height="2" fill="#D6681D" />
<rect x="55" y="71" width="11" height="1" fill="#DF7126" />
<rect x="86" y="71" width="1" height="1" fill="#DF7126" />
<rect x="87" y="71" width="7" height="1" fill="#D6681D" />
<rect x="94" y="71" width="3" height="1" fill="#DF7126" />
<rect x="97" y="71" width="4" height="1" fill="#E18331" />
<rect x="101" y="71" width="2" height="8" fill="#DF7126" />
<rect x="107" y="71" width="1" height="7" fill="#DF7126" />
<rect x="111" y="71" width="1" height="5" fill="#DF7126" />
<rect x="40" y="72" width="3" height="3" fill="#DF7126" />
<rect x="48" y="72" width="6" height="3" fill="#DF7126" />
<rect x="55" y="72" width="3" height="1" fill="#D6681D" />
<rect x="58" y="72" width="8" height="1" fill="#DF7126" />
<rect x="76" y="72" width="8" height="1" fill="#DF7126" />
<rect x="84" y="72" width="7" height="1" fill="#D6681D" />
<rect x="91" y="72" width="5" height="1" fill="#DF7126" />
<rect x="96" y="72" width="1" height="1" fill="#B5621B" />
<rect x="97" y="72" width="3" height="1" fill="#E18331" />
<rect x="100" y="72" width="1" height="8" fill="#DF7126" />
<rect x="103" y="72" width="4" height="6" fill="#DF7126" />
<rect x="38" y="73" width="2" height="3" fill="#DF7126" />
<rect x="54" y="73" width="2" height="7" fill="#DF7126" />
<rect x="56" y="73" width="13" height="1" fill="#D6681D" />
<rect x="76" y="73" width="4" height="1" fill="#DF7126" />
<rect x="80" y="73" width="6" height="1" fill="#D6681D" />
<rect x="86" y="73" width="8" height="1" fill="#DF7126" />
<rect x="94" y="73" width="2" height="1" fill="#B5621B" />
<rect x="96" y="73" width="3" height="2" fill="#E18331" />
<rect x="99" y="73" width="1" height="3" fill="#B5621B" />
<rect x="113" y="73" width="1" height="1" fill="#DF7126" />
<rect x="34" y="74" width="4" height="2" fill="#DF7126" />
<rect x="56" y="74" width="5" height="3" fill="#DF7126" />
<rect x="61" y="74" width="9" height="1" fill="#D6681D" />
<rect x="76" y="74" width="1" height="3" fill="#DF7126" />
<rect x="77" y="74" width="6" height="1" fill="#D6681D" />
<rect x="83" y="74" width="8" height="1" fill="#DF7126" />
<rect x="91" y="74" width="3" height="3" fill="#B5621B" />
<rect x="94" y="74" width="2" height="2" fill="#E18331" />
<rect x="41" y="75" width="6" height="1" fill="#DF7126" />
<rect x="49" y="75" width="5" height="3" fill="#DF7126" />
<rect x="61" y="75" width="9" height="2" fill="#DF7126" />
<rect x="77" y="75" width="8" height="1" fill="#DF7126" />
<rect x="85" y="75" width="6" height="2" fill="#B5621B" />
<rect x="96" y="75" width="2" height="1" fill="#E18331" />
<rect x="98" y="75" width="1" height="1" fill="#B5621B" />
<rect x="47" y="76" width="2" height="2" fill="#DF7126" />
<rect x="77" y="76" width="1" height="1" fill="#DF7126" />
<rect x="78" y="76" width="7" height="2" fill="#B5621B" />
<rect x="94" y="76" width="3" height="1" fill="#B5621B" />
<rect x="97" y="76" width="3" height="5" fill="#DF7126" />
<rect x="56" y="77" width="1" height="4" fill="#DF7126" />
<rect x="57" y="77" width="16" height="1" fill="#E46F1F" />
<rect x="73" y="77" width="5" height="2" fill="#B5621B" />
<rect x="85" y="77" width="2" height="1" fill="#B5621B" />
<rect x="87" y="77" width="10" height="2" fill="#DF7126" />
<rect x="51" y="78" width="3" height="1" fill="#DF7126" />
<rect x="57" y="78" width="8" height="1" fill="#DF7126" />
<rect x="65" y="78" width="8" height="1" fill="#B5621B" />
<rect x="78" y="78" width="2" height="1" fill="#B5621B" />
<rect x="80" y="78" width="7" height="1" fill="#DF7126" />
<rect x="103" y="78" width="2" height="1" fill="#DF7126" />
<rect x="52" y="79" width="2" height="1" fill="#DF7126" />
<rect x="57" y="79" width="3" height="2" fill="#DF7126" />
<rect x="60" y="79" width="8" height="1" fill="#E46F1F" />
<rect x="68" y="79" width="1" height="1" fill="#B5621B" />
<rect x="69" y="79" width="17" height="1" fill="#DF7126" />
<rect x="86" y="79" width="2" height="1" fill="#C3601D" />
<rect x="88" y="79" width="9" height="3" fill="#DF7126" />
<rect x="101" y="79" width="1" height="1" fill="#DF7126" />
<rect x="60" y="80" width="4" height="1" fill="#DF7126" />
<rect x="64" y="80" width="2" height="1" fill="#C3601D" />
<rect x="66" y="80" width="15" height="1" fill="#DF7126" />
<rect x="81" y="80" width="6" height="1" fill="#C3601D" />
<rect x="87" y="80" width="1" height="5" fill="#DF7126" />
<rect x="49" y="81" width="4" height="1" fill="#E46F1F" />
<rect x="53" y="81" width="11" height="1" fill="#C3601D" />
<rect x="64" y="81" width="1" height="1" fill="#DF7126" />
<rect x="65" y="81" width="20" height="1" fill="#C3601D" />
<rect x="85" y="81" width="2" height="5" fill="#DF7126" />
<rect x="39" y="82" width="16" height="1" fill="#C3601D" />
<rect x="55" y="82" width="8" height="1" fill="#DF7126" />
<rect x="63" y="82" width="17" height="1" fill="#C3601D" />
<rect x="80" y="82" width="5" height="4" fill="#DF7126" />
<rect x="88" y="82" width="6" height="1" fill="#DF7126" />
<rect x="61" y="83" width="19" height="1" fill="#DF7126" />
<rect x="88" y="83" width="1" height="1" fill="#DF7126" />
<rect x="69" y="84" width="11" height="1" fill="#DF7126" />
<rect x="74" y="85" width="6" height="1" fill="#DF7126" />
</svg>