<?xml version="1.0" encoding="UTF-8" ?>
<svg version="1.1" width="128" height="128" viewBox="0 0 128 128" xmlns="http://www.w3.org/2000/svg" shape-rendering="crispEdges" fill="currentColor">
  <rect x="0" y="0" width="16" height="4" />
  <rect x="112" y="0" width="16" height="4" />
  <rect x="19" y="1" width="90" height="3" />
  <rect x="16" y="3" width="1" height="14" />
  <rect x="111" y="3" width="1" height="14" />
  <rect x="0" y="4" width="4" height="12" />
  <rect x="124" y="4" width="4" height="12" />
  <rect x="6" y="6" width="10" height="2" />
  <rect x="112" y="6" width="10" height="2" />
  <rect x="6" y="8" width="2" height="9" />
  <rect x="120" y="8" width="2" height="9" />
  <rect x="9" y="9" width="7" height="2" />
  <rect x="112" y="9" width="7" height="2" />
  <rect x="9" y="11" width="2" height="6" />
  <rect x="117" y="11" width="2" height="6" />
  <rect x="13" y="13" width="3" height="4" />
  <rect x="112" y="13" width="3" height="4" />
  <rect x="4" y="16" width="2" height="1" />
  <rect x="8" y="16" width="1" height="1" />
  <rect x="11" y="16" width="2" height="1" />
  <rect x="115" y="16" width="2" height="1" />
  <rect x="119" y="16" width="1" height="1" />
  <rect x="122" y="16" width="3" height="1" />
  <rect x="1" y="19" width="3" height="90" />
  <rect x="124" y="19" width="3" height="90" />
  <rect x="4" y="111" width="13" height="1" />
  <rect x="111" y="111" width="13" height="1" />
  <rect x="0" y="112" width="4" height="16" />
  <rect x="6" y="112" width="2" height="10" />
  <rect x="9" y="112" width="2" height="7" />
  <rect x="13" y="112" width="4" height="3" />
  <rect x="111" y="112" width="4" height="3" />
  <rect x="117" y="112" width="2" height="7" />
  <rect x="120" y="112" width="2" height="10" />
  <rect x="124" y="112" width="4" height="16" />
  <rect x="16" y="115" width="1" height="10" />
  <rect x="111" y="115" width="1" height="9" />
  <rect x="11" y="117" width="5" height="2" />
  <rect x="112" y="117" width="5" height="2" />
  <rect x="8" y="120" width="8" height="2" />
  <rect x="112" y="120" width="8" height="2" />
  <rect x="4" y="124" width="12" height="4" />
  <rect x="19" y="124" width="90" height="3" />
  <rect x="112" y="124" width="12" height="4" />
</svg>
