<?xml version="1.0" encoding="UTF-8" ?>
<svg version="1.1" width="128" height="128" xmlns="http://www.w3.org/2000/svg" shape-rendering="crispEdges">
<rect x="114" y="9" width="1" height="1" fill="#FF3900" />
<rect x="107" y="11" width="1" height="1" fill="#FF3900" />
<rect x="118" y="18" width="1" height="1" fill="#FF3900" />
<rect x="105" y="19" width="1" height="2" fill="#FF3900" />
<rect x="110" y="19" width="1" height="4" fill="#FF3900" />
<rect x="110" y="28" width="1" height="3" fill="#FF3900" />
<rect x="108" y="30" width="1" height="5" fill="#FE5A00" />
<rect x="107" y="32" width="1" height="5" fill="#FE5A00" />
<rect x="106" y="33" width="1" height="1" fill="#FE5A00" />
<rect x="118" y="33" width="1" height="1" fill="#FF3900" />
<rect x="105" y="34" width="2" height="1" fill="#FF5B00" />
<rect x="104" y="35" width="1" height="1" fill="#FE5A00" />
<rect x="105" y="35" width="1" height="2" fill="#FF5B00" />
<rect x="106" y="35" width="1" height="4" fill="#FE5A00" />
<rect x="103" y="36" width="1" height="2" fill="#FE5A00" />
<rect x="104" y="36" width="1" height="3" fill="#FF5B00" />
<rect x="102" y="37" width="1" height="2" fill="#FE5A00" />
<rect x="105" y="37" width="1" height="5" fill="#FE5A00" />
<rect x="101" y="38" width="1" height="1" fill="#FE5A00" />
<rect x="103" y="38" width="1" height="2" fill="#FF5B00" />
<rect x="88" y="39" width="2" height="1" fill="#FE5A00" />
<rect x="101" y="39" width="2" height="1" fill="#FF5B00" />
<rect x="104" y="39" width="1" height="4" fill="#FE5A00" />
<rect x="87" y="40" width="2" height="1" fill="#FE5A00" />
<rect x="99" y="40" width="1" height="1" fill="#FE5A00" />
<rect x="100" y="40" width="2" height="3" fill="#FF5B00" />
<rect x="102" y="40" width="2" height="1" fill="#FE5A00" />
<rect x="86" y="41" width="1" height="1" fill="#FE5A00" />
<rect x="87" y="41" width="1" height="2" fill="#A33A00" />
<rect x="98" y="41" width="1" height="1" fill="#FE5A00" />
<rect x="99" y="41" width="1" height="2" fill="#FF5B00" />
<rect x="102" y="41" width="1" height="1" fill="#FF5B00" />
<rect x="103" y="41" width="1" height="3" fill="#FE5A00" />
<rect x="115" y="41" width="1" height="4" fill="#FF5B00" />
<rect x="86" y="42" width="1" height="1" fill="#A33A00" />
<rect x="96" y="42" width="2" height="1" fill="#FE5A00" />
<rect x="98" y="42" width="1" height="2" fill="#FF5B00" />
<rect x="102" y="42" width="1" height="3" fill="#FE5A00" />
<rect x="111" y="42" width="1" height="1" fill="#FF5B00" />
<rect x="94" y="43" width="3" height="2" fill="#FE5A00" />
<rect x="97" y="43" width="1" height="1" fill="#FF5B00" />
<rect x="99" y="43" width="3" height="2" fill="#FE5A00" />
<rect x="114" y="43" width="1" height="1" fill="#FE5A00" />
<rect x="93" y="44" width="1" height="3" fill="#FE5A00" />
<rect x="97" y="44" width="2" height="2" fill="#FE5A00" />
<rect x="112" y="44" width="2" height="2" fill="#A33A00" />
<rect x="114" y="44" width="1" height="1" fill="#FF5B00" />
<rect x="91" y="45" width="2" height="2" fill="#FE5A00" />
<rect x="94" y="45" width="2" height="2" fill="#FF5B00" />
<rect x="96" y="45" width="1" height="2" fill="#FE5A00" />
<rect x="99" y="45" width="1" height="1" fill="#E45100" />
<rect x="100" y="45" width="1" height="1" fill="#A33A00" />
<rect x="101" y="45" width="1" height="1" fill="#FE5A00" />
<rect x="114" y="45" width="2" height="1" fill="#FE5A00" />
<rect x="78" y="46" width="1" height="7" fill="#FF7300" />
<rect x="89" y="46" width="2" height="2" fill="#FE5A00" />
<rect x="97" y="46" width="2" height="1" fill="#E45100" />
<rect x="99" y="46" width="1" height="1" fill="#A33A00" />
<rect x="100" y="46" width="1" height="1" fill="#FE5A00" />
<rect x="103" y="46" width="2" height="1" fill="#FF5B00" />
<rect x="110" y="46" width="3" height="1" fill="#A33A00" />
<rect x="115" y="46" width="1" height="1" fill="#FE5A00" />
<rect x="77" y="47" width="1" height="5" fill="#FF7300" />
<rect x="88" y="47" width="1" height="2" fill="#FE5A00" />
<rect x="91" y="47" width="1" height="1" fill="#FE5A00" />
<rect x="92" y="47" width="2" height="1" fill="#FF5B00" />
<rect x="94" y="47" width="4" height="1" fill="#E45100" />
<rect x="98" y="47" width="2" height="3" fill="#FE5A00" />
<rect x="102" y="47" width="2" height="1" fill="#FF5B00" />
<rect x="85" y="48" width="3" height="2" fill="#FE5A00" />
<rect x="89" y="48" width="1" height="1" fill="#FE5A00" />
<rect x="90" y="48" width="2" height="1" fill="#FF5B00" />
<rect x="92" y="48" width="3" height="2" fill="#E45100" />
<rect x="95" y="48" width="1" height="1" fill="#A33A00" />
<rect x="96" y="48" width="2" height="3" fill="#FE5A00" />
<rect x="100" y="48" width="3" height="1" fill="#FF5B00" />
<rect x="115" y="48" width="1" height="2" fill="#FE5A00" />
<rect x="76" y="49" width="1" height="1" fill="#FF3900" />
<rect x="82" y="49" width="3" height="1" fill="#FE5A00" />
<rect x="88" y="49" width="3" height="1" fill="#FF5B00" />
<rect x="91" y="49" width="1" height="3" fill="#E45100" />
<rect x="95" y="49" width="1" height="4" fill="#FE5A00" />
<rect x="100" y="49" width="2" height="1" fill="#FF3413" />
<rect x="114" y="49" width="1" height="2" fill="#FE5A00" />
<rect x="75" y="50" width="1" height="1" fill="#FE5A00" />
<rect x="76" y="50" width="1" height="2" fill="#FF7300" />
<rect x="79" y="50" width="7" height="1" fill="#FF7300" />
<rect x="86" y="50" width="2" height="1" fill="#FF5B00" />
<rect x="88" y="50" width="2" height="1" fill="#FE5A00" />
<rect x="90" y="50" width="1" height="1" fill="#E45100" />
<rect x="92" y="50" width="2" height="1" fill="#E45100" />
<rect x="94" y="50" width="1" height="1" fill="#FE5A00" />
<rect x="98" y="50" width="1" height="1" fill="#A33A00" />
<rect x="99" y="50" width="2" height="1" fill="#FF3413" />
<rect x="75" y="51" width="1" height="2" fill="#FF7300" />
<rect x="79" y="51" width="1" height="1" fill="#FF3900" />
<rect x="80" y="51" width="4" height="1" fill="#FF7300" />
<rect x="84" y="51" width="1" height="1" fill="#FF5B00" />
<rect x="85" y="51" width="3" height="1" fill="#FE5A00" />
<rect x="88" y="51" width="1" height="1" fill="#E45100" />
<rect x="89" y="51" width="2" height="1" fill="#FF3413" />
<rect x="92" y="51" width="1" height="1" fill="#A33A00" />
<rect x="93" y="51" width="1" height="1" fill="#FE5A00" />
<rect x="94" y="51" width="1" height="2" fill="#FF5B00" />
<rect x="96" y="51" width="1" height="1" fill="#FE5A00" />
<rect x="97" y="51" width="1" height="1" fill="#A33A00" />
<rect x="98" y="51" width="2" height="2" fill="#FF3413" />
<rect x="74" y="52" width="1" height="2" fill="#FF7300" />
<rect x="76" y="52" width="2" height="4" fill="#FE5A00" />
<rect x="79" y="52" width="2" height="1" fill="#FF7300" />
<rect x="81" y="52" width="1" height="1" fill="#FF5B00" />
<rect x="82" y="52" width="3" height="1" fill="#FE5A00" />
<rect x="85" y="52" width="3" height="1" fill="#E45100" />
<rect x="88" y="52" width="2" height="1" fill="#FF3413" />
<rect x="90" y="52" width="1" height="1" fill="#A33A00" />
<rect x="91" y="52" width="2" height="1" fill="#FE5A00" />
<rect x="93" y="52" width="1" height="2" fill="#FF5B00" />
<rect x="96" y="52" width="1" height="1" fill="#E45100" />
<rect x="97" y="52" width="1" height="2" fill="#FF3413" />
<rect x="107" y="52" width="2" height="1" fill="#FF5B00" />
<rect x="72" y="53" width="2" height="2" fill="#FF7300" />
<rect x="75" y="53" width="1" height="5" fill="#FE5A00" />
<rect x="78" y="53" width="6" height="7" fill="#FE5A00" />
<rect x="84" y="53" width="2" height="1" fill="#A33A00" />
<rect x="86" y="53" width="1" height="1" fill="#FF7300" />
<rect x="87" y="53" width="2" height="1" fill="#FF3413" />
<rect x="89" y="53" width="3" height="1" fill="#FE5A00" />
<rect x="92" y="53" width="1" height="1" fill="#FF5B00" />
<rect x="94" y="53" width="1" height="1" fill="#FE5A00" />
<rect x="95" y="53" width="2" height="1" fill="#FF3413" />
<rect x="107" y="53" width="1" height="3" fill="#FF5B00" />
<rect x="74" y="54" width="1" height="3" fill="#FE5A00" />
<rect x="84" y="54" width="1" height="2" fill="#FE5A00" />
<rect x="85" y="54" width="1" height="1" fill="#FF7300" />
<rect x="86" y="54" width="2" height="1" fill="#FF3413" />
<rect x="88" y="54" width="2" height="1" fill="#FE5A00" />
<rect x="90" y="54" width="2" height="1" fill="#FF5B00" />
<rect x="92" y="54" width="1" height="1" fill="#E45100" />
<rect x="93" y="54" width="3" height="1" fill="#FF3413" />
<rect x="106" y="54" width="1" height="1" fill="#FE5A00" />
<rect x="71" y="55" width="2" height="1" fill="#FF7300" />
<rect x="73" y="55" width="1" height="1" fill="#FF3900" />
<rect x="85" y="55" width="2" height="2" fill="#FF3413" />
<rect x="87" y="55" width="1" height="1" fill="#FE5A00" />
<rect x="88" y="55" width="3" height="1" fill="#FF5B00" />
<rect x="91" y="55" width="3" height="1" fill="#FF3413" />
<rect x="94" y="55" width="2" height="1" fill="#FE5A00" />
<rect x="104" y="55" width="1" height="1" fill="#FE5A00" />
<rect x="105" y="55" width="2" height="2" fill="#FF5B00" />
<rect x="111" y="55" width="1" height="1" fill="#FE5A00" />
<rect x="59" y="56" width="1" height="1" fill="#FF7300" />
<rect x="71" y="56" width="1" height="2" fill="#FE5A00" />
<rect x="72" y="56" width="1" height="3" fill="#FF7300" />
<rect x="73" y="56" width="1" height="3" fill="#FE5A00" />
<rect x="76" y="56" width="1" height="2" fill="#FE5A00" />
<rect x="77" y="56" width="1" height="4" fill="#A33A00" />
<rect x="84" y="56" width="1" height="5" fill="#FF3413" />
<rect x="87" y="56" width="1" height="10" fill="#FF3413" />
<rect x="88" y="56" width="2" height="1" fill="#FF5B00" />
<rect x="90" y="56" width="3" height="1" fill="#A33A00" />
<rect x="94" y="56" width="1" height="1" fill="#FE5A00" />
<rect x="103" y="56" width="2" height="3" fill="#FF5B00" />
<rect x="74" y="57" width="1" height="5" fill="#FF5B00" />
<rect x="85" y="57" width="1" height="2" fill="#E45100" />
<rect x="86" y="57" width="1" height="3" fill="#FF3413" />
<rect x="88" y="57" width="1" height="2" fill="#FE5A00" />
<rect x="89" y="57" width="2" height="1" fill="#A33A00" />
<rect x="91" y="57" width="3" height="2" fill="#FE5A00" />
<rect x="100" y="57" width="3" height="1" fill="#FF5B00" />
<rect x="105" y="57" width="1" height="1" fill="#FF5B00" />
<rect x="106" y="57" width="1" height="3" fill="#FE5A00" />
<rect x="70" y="58" width="1" height="1" fill="#FE5A00" />
<rect x="71" y="58" width="1" height="2" fill="#FF7300" />
<rect x="75" y="58" width="2" height="1" fill="#FF5B00" />
<rect x="89" y="58" width="2" height="1" fill="#FE5A00" />
<rect x="97" y="58" width="1" height="1" fill="#FE5A00" />
<rect x="98" y="58" width="3" height="1" fill="#FF5B00" />
<rect x="101" y="58" width="1" height="2" fill="#FE5A00" />
<rect x="102" y="58" width="1" height="2" fill="#FF5B00" />
<rect x="105" y="58" width="1" height="3" fill="#FF3413" />
<rect x="59" y="59" width="1" height="2" fill="#FE5A00" />
<rect x="70" y="59" width="1" height="2" fill="#FF7300" />
<rect x="72" y="59" width="1" height="5" fill="#FE5A00" />
<rect x="73" y="59" width="1" height="3" fill="#FF5B00" />
<rect x="75" y="59" width="1" height="1" fill="#FF5B00" />
<rect x="76" y="59" width="1" height="3" fill="#A33A00" />
<rect x="85" y="59" width="1" height="1" fill="#FE5A00" />
<rect x="88" y="59" width="5" height="1" fill="#FF7300" />
<rect x="93" y="59" width="3" height="1" fill="#FE5A00" />
<rect x="96" y="59" width="3" height="1" fill="#FF5B00" />
<rect x="99" y="59" width="2" height="2" fill="#FE5A00" />
<rect x="103" y="59" width="1" height="2" fill="#FE5A00" />
<rect x="104" y="59" width="1" height="4" fill="#FF3413" />
<rect x="58" y="60" width="1" height="3" fill="#FE5A00" />
<rect x="64" y="60" width="1" height="4" fill="#FE5A00" />
<rect x="69" y="60" width="1" height="2" fill="#FF7300" />
<rect x="71" y="60" width="1" height="1" fill="#FF3900" />
<rect x="75" y="60" width="1" height="2" fill="#FE5A00" />
<rect x="77" y="60" width="1" height="1" fill="#FE5A00" />
<rect x="78" y="60" width="1" height="2" fill="#A33A00" />
<rect x="79" y="60" width="4" height="1" fill="#FE5A00" />
<rect x="83" y="60" width="1" height="3" fill="#FF3413" />
<rect x="85" y="60" width="1" height="4" fill="#FF5B00" />
<rect x="86" y="60" width="1" height="2" fill="#FE5A00" />
<rect x="88" y="60" width="1" height="1" fill="#FF7300" />
<rect x="89" y="60" width="1" height="4" fill="#FE5A00" />
<rect x="90" y="60" width="4" height="1" fill="#FF7300" />
<rect x="94" y="60" width="3" height="1" fill="#FF5B00" />
<rect x="97" y="60" width="2" height="3" fill="#FE5A00" />
<rect x="101" y="60" width="2" height="2" fill="#E45100" />
<rect x="68" y="61" width="1" height="2" fill="#FF7300" />
<rect x="70" y="61" width="1" height="1" fill="#FF3900" />
<rect x="71" y="61" width="1" height="1" fill="#FE5A00" />
<rect x="77" y="61" width="1" height="3" fill="#E45100" />
<rect x="79" y="61" width="3" height="1" fill="#FE5A00" />
<rect x="82" y="61" width="1" height="1" fill="#E45100" />
<rect x="84" y="61" width="1" height="4" fill="#FF5B00" />
<rect x="88" y="61" width="1" height="3" fill="#FE5A00" />
<rect x="90" y="61" width="2" height="1" fill="#FF7300" />
<rect x="92" y="61" width="5" height="2" fill="#FE5A00" />
<rect x="99" y="61" width="1" height="1" fill="#FE5A00" />
<rect x="100" y="61" width="1" height="3" fill="#E45100" />
<rect x="103" y="61" width="1" height="3" fill="#FF3413" />
<rect x="109" y="61" width="2" height="1" fill="#FF5B00" />
<rect x="57" y="62" width="1" height="4" fill="#FE5A00" />
<rect x="67" y="62" width="1" height="2" fill="#FF7300" />
<rect x="69" y="62" width="1" height="1" fill="#FF3900" />
<rect x="70" y="62" width="1" height="1" fill="#FE5A00" />
<rect x="71" y="62" width="1" height="2" fill="#FF5B00" />
<rect x="73" y="62" width="2" height="1" fill="#FE5A00" />
<rect x="75" y="62" width="1" height="1" fill="#A33A00" />
<rect x="76" y="62" width="1" height="2" fill="#E45100" />
<rect x="78" y="62" width="3" height="1" fill="#FE5A00" />
<rect x="81" y="62" width="2" height="1" fill="#FF3413" />
<rect x="86" y="62" width="1" height="5" fill="#FF3413" />
<rect x="90" y="62" width="2" height="1" fill="#FE5A00" />
<rect x="99" y="62" width="1" height="2" fill="#E45100" />
<rect x="101" y="62" width="1" height="1" fill="#E45100" />
<rect x="102" y="62" width="1" height="3" fill="#FF3413" />
<rect x="109" y="62" width="1" height="1" fill="#FF5B00" />
<rect x="63" y="63" width="1" height="2" fill="#FE5A00" />
<rect x="65" y="63" width="2" height="1" fill="#FF7300" />
<rect x="68" y="63" width="2" height="1" fill="#FE5A00" />
<rect x="70" y="63" width="1" height="5" fill="#FF5B00" />
<rect x="73" y="63" width="1" height="1" fill="#FE5A00" />
<rect x="74" y="63" width="1" height="1" fill="#A33A00" />
<rect x="75" y="63" width="1" height="2" fill="#E45100" />
<rect x="78" y="63" width="4" height="1" fill="#FF3413" />
<rect x="82" y="63" width="2" height="1" fill="#FF5B00" />
<rect x="90" y="63" width="5" height="1" fill="#FF5B00" />
<rect x="95" y="63" width="3" height="1" fill="#FE5A00" />
<rect x="98" y="63" width="1" height="1" fill="#A33A00" />
<rect x="101" y="63" width="1" height="3" fill="#FF3413" />
<rect x="56" y="64" width="1" height="2" fill="#FE5A00" />
<rect x="62" y="64" width="1" height="1" fill="#FE5A00" />
<rect x="64" y="64" width="2" height="1" fill="#FF7300" />
<rect x="66" y="64" width="1" height="1" fill="#FF3900" />
<rect x="67" y="64" width="2" height="1" fill="#FE5A00" />
<rect x="69" y="64" width="1" height="4" fill="#FF5B00" />
<rect x="71" y="64" width="1" height="1" fill="#FE5A00" />
<rect x="72" y="64" width="2" height="1" fill="#A33A00" />
<rect x="74" y="64" width="1" height="1" fill="#E45100" />
<rect x="76" y="64" width="3" height="1" fill="#FF3413" />
<rect x="79" y="64" width="4" height="1" fill="#FF5B00" />
<rect x="83" y="64" width="1" height="2" fill="#FE5A00" />
<rect x="85" y="64" width="1" height="4" fill="#FF3413" />
<rect x="88" y="64" width="4" height="1" fill="#FF5B00" />
<rect x="92" y="64" width="5" height="1" fill="#FE5A00" />
<rect x="97" y="64" width="1" height="1" fill="#A33A00" />
<rect x="98" y="64" width="2" height="1" fill="#FF7300" />
<rect x="100" y="64" width="1" height="2" fill="#FF3413" />
<rect x="49" y="65" width="1" height="1" fill="#FF7300" />
<rect x="55" y="65" width="1" height="2" fill="#FE5A00" />
<rect x="58" y="65" width="2" height="1" fill="#A33A00" />
<rect x="60" y="65" width="2" height="1" fill="#FE5A00" />
<rect x="62" y="65" width="3" height="1" fill="#FF7300" />
<rect x="65" y="65" width="1" height="1" fill="#FF5B00" />
<rect x="66" y="65" width="2" height="2" fill="#FE5A00" />
<rect x="68" y="65" width="1" height="3" fill="#FF5B00" />
<rect x="71" y="65" width="2" height="1" fill="#A33A00" />
<rect x="73" y="65" width="1" height="2" fill="#E45100" />
<rect x="74" y="65" width="3" height="1" fill="#FF3413" />
<rect x="77" y="65" width="4" height="1" fill="#FF5B00" />
<rect x="81" y="65" width="1" height="1" fill="#A33A00" />
<rect x="82" y="65" width="1" height="2" fill="#FF5B00" />
<rect x="84" y="65" width="1" height="5" fill="#FF3413" />
<rect x="88" y="65" width="3" height="1" fill="#FF5B00" />
<rect x="91" y="65" width="5" height="1" fill="#FE5A00" />
<rect x="96" y="65" width="1" height="1" fill="#A33A00" />
<rect x="97" y="65" width="2" height="1" fill="#FF7300" />
<rect x="99" y="65" width="1" height="2" fill="#FF3413" />
<rect x="114" y="65" width="1" height="2" fill="#FF5B00" />
<rect x="48" y="66" width="1" height="2" fill="#FF7300" />
<rect x="54" y="66" width="1" height="1" fill="#FE5A00" />
<rect x="56" y="66" width="6" height="1" fill="#FF5B00" />
<rect x="62" y="66" width="1" height="1" fill="#FF7300" />
<rect x="63" y="66" width="2" height="1" fill="#FF5B00" />
<rect x="65" y="66" width="1" height="3" fill="#FE5A00" />
<rect x="71" y="66" width="2" height="1" fill="#E45100" />
<rect x="74" y="66" width="1" height="1" fill="#FF5B00" />
<rect x="75" y="66" width="4" height="1" fill="#FE5A00" />
<rect x="79" y="66" width="2" height="2" fill="#A33A00" />
<rect x="81" y="66" width="1" height="4" fill="#FF5B00" />
<rect x="83" y="66" width="1" height="5" fill="#FF3413" />
<rect x="87" y="66" width="3" height="1" fill="#FF5B00" />
<rect x="90" y="66" width="2" height="1" fill="#FE5A00" />
<rect x="92" y="66" width="1" height="3" fill="#FF5B00" />
<rect x="93" y="66" width="6" height="1" fill="#FF3413" />
<rect x="109" y="66" width="1" height="3" fill="#E45100" />
<rect x="113" y="66" width="1" height="4" fill="#FF5B00" />
<rect x="47" y="67" width="1" height="3" fill="#FE5A00" />
<rect x="53" y="67" width="1" height="1" fill="#FE5A00" />
<rect x="54" y="67" width="3" height="1" fill="#FF5B00" />
<rect x="57" y="67" width="3" height="1" fill="#A33A00" />
<rect x="60" y="67" width="1" height="1" fill="#FE5A00" />
<rect x="61" y="67" width="2" height="1" fill="#FF5B00" />
<rect x="63" y="67" width="2" height="2" fill="#FE5A00" />
<rect x="66" y="67" width="1" height="1" fill="#FE5A00" />
<rect x="67" y="67" width="1" height="2" fill="#FF5B00" />
<rect x="71" y="67" width="4" height="1" fill="#FE5A00" />
<rect x="75" y="67" width="4" height="1" fill="#A33A00" />
<rect x="82" y="67" width="1" height="1" fill="#FE5A00" />
<rect x="86" y="67" width="3" height="1" fill="#FF5B00" />
<rect x="89" y="67" width="1" height="1" fill="#A33A00" />
<rect x="90" y="67" width="2" height="3" fill="#FF5B00" />
<rect x="93" y="67" width="2" height="1" fill="#A33A00" />
<rect x="95" y="67" width="1" height="1" fill="#FF5B00" />
<rect x="96" y="67" width="3" height="1" fill="#FF3413" />
<rect x="48" y="68" width="1" height="2" fill="#FE5A00" />
<rect x="51" y="68" width="1" height="1" fill="#FE5A00" />
<rect x="52" y="68" width="3" height="1" fill="#FF5B00" />
<rect x="55" y="68" width="1" height="1" fill="#FE5A00" />
<rect x="56" y="68" width="3" height="1" fill="#A33A00" />
<rect x="59" y="68" width="3" height="2" fill="#FF5B00" />
<rect x="62" y="68" width="1" height="2" fill="#FE5A00" />
<rect x="66" y="68" width="1" height="2" fill="#FF5B00" />
<rect x="68" y="68" width="6" height="3" fill="#FE5A00" />
<rect x="74" y="68" width="2" height="1" fill="#A33A00" />
<rect x="76" y="68" width="2" height="1" fill="#FE5A00" />
<rect x="78" y="68" width="2" height="1" fill="#A33A00" />
<rect x="80" y="68" width="1" height="1" fill="#FE5A00" />
<rect x="82" y="68" width="1" height="4" fill="#FF3413" />
<rect x="85" y="68" width="1" height="1" fill="#E45100" />
<rect x="86" y="68" width="1" height="1" fill="#FF5B00" />
<rect x="87" y="68" width="1" height="5" fill="#FE5A00" />
<rect x="88" y="68" width="1" height="1" fill="#A33A00" />
<rect x="89" y="68" width="1" height="2" fill="#FF5B00" />
<rect x="93" y="68" width="2" height="1" fill="#FF5B00" />
<rect x="95" y="68" width="2" height="1" fill="#FF3413" />
<rect x="104" y="68" width="1" height="1" fill="#FE5A00" />
<rect x="108" y="68" width="1" height="3" fill="#E45100" />
<rect x="46" y="69" width="1" height="2" fill="#FE5A00" />
<rect x="49" y="69" width="4" height="1" fill="#FF5B00" />
<rect x="53" y="69" width="2" height="1" fill="#FE5A00" />
<rect x="55" y="69" width="2" height="1" fill="#A33A00" />
<rect x="57" y="69" width="2" height="1" fill="#FF5B00" />
<rect x="63" y="69" width="1" height="1" fill="#FE5A00" />
<rect x="64" y="69" width="2" height="2" fill="#FF5B00" />
<rect x="67" y="69" width="1" height="4" fill="#FE5A00" />
<rect x="74" y="69" width="2" height="1" fill="#FE5A00" />
<rect x="76" y="69" width="3" height="1" fill="#A33A00" />
<rect x="79" y="69" width="1" height="2" fill="#FE5A00" />
<rect x="80" y="69" width="1" height="2" fill="#FF5B00" />
<rect x="85" y="69" width="2" height="4" fill="#FE5A00" />
<rect x="88" y="69" width="1" height="1" fill="#FF5B00" />
<rect x="92" y="69" width="4" height="1" fill="#FF3413" />
<rect x="96" y="69" width="1" height="1" fill="#FE5A00" />
<rect x="97" y="69" width="10" height="1" fill="#FF5B00" />
<rect x="45" y="70" width="1" height="1" fill="#FE5A00" />
<rect x="47" y="70" width="5" height="1" fill="#FF7300" />
<rect x="52" y="70" width="2" height="1" fill="#FE5A00" />
<rect x="54" y="70" width="2" height="1" fill="#A33A00" />
<rect x="56" y="70" width="2" height="1" fill="#FF5B00" />
<rect x="58" y="70" width="2" height="1" fill="#A33A00" />
<rect x="60" y="70" width="4" height="1" fill="#FF5B00" />
<rect x="66" y="70" width="1" height="3" fill="#FE5A00" />
<rect x="74" y="70" width="3" height="1" fill="#A33A00" />
<rect x="77" y="70" width="2" height="2" fill="#FE5A00" />
<rect x="81" y="70" width="1" height="2" fill="#FF3413" />
<rect x="84" y="70" width="1" height="1" fill="#E45100" />
<rect x="88" y="70" width="2" height="1" fill="#FE5A00" />
<rect x="90" y="70" width="3" height="1" fill="#FF3413" />
<rect x="93" y="70" width="2" height="1" fill="#FE5A00" />
<rect x="95" y="70" width="7" height="1" fill="#FF5B00" />
<rect x="102" y="70" width="1" height="1" fill="#FE5A00" />
<rect x="107" y="70" width="1" height="1" fill="#E45100" />
<rect x="44" y="71" width="1" height="4" fill="#FE5A00" />
<rect x="45" y="71" width="3" height="1" fill="#FF7300" />
<rect x="48" y="71" width="4" height="1" fill="#FE5A00" />
<rect x="52" y="71" width="1" height="3" fill="#A33A00" />
<rect x="53" y="71" width="13" height="1" fill="#FF7300" />
<rect x="68" y="71" width="3" height="1" fill="#FE5A00" />
<rect x="71" y="71" width="4" height="1" fill="#A33A00" />
<rect x="75" y="71" width="2" height="4" fill="#FE5A00" />
<rect x="79" y="71" width="1" height="1" fill="#FF5B00" />
<rect x="80" y="71" width="1" height="2" fill="#FF3413" />
<rect x="83" y="71" width="1" height="1" fill="#E45100" />
<rect x="84" y="71" width="1" height="5" fill="#FE5A00" />
<rect x="88" y="71" width="1" height="1" fill="#FE5A00" />
<rect x="89" y="71" width="2" height="1" fill="#FF3413" />
<rect x="91" y="71" width="5" height="1" fill="#FF5B00" />
<rect x="96" y="71" width="6" height="1" fill="#FE5A00" />
<rect x="104" y="71" width="4" height="1" fill="#FE5A00" />
<rect x="108" y="71" width="1" height="2" fill="#FF5B00" />
<rect x="45" y="72" width="3" height="2" fill="#FE5A00" />
<rect x="48" y="72" width="4" height="2" fill="#A33A00" />
<rect x="53" y="72" width="3" height="1" fill="#FF5B00" />
<rect x="56" y="72" width="1" height="1" fill="#A33A00" />
<rect x="57" y="72" width="2" height="4" fill="#FE5A00" />
<rect x="59" y="72" width="5" height="1" fill="#FF5B00" />
<rect x="64" y="72" width="2" height="6" fill="#FE5A00" />
<rect x="68" y="72" width="4" height="1" fill="#A33A00" />
<rect x="72" y="72" width="3" height="3" fill="#FE5A00" />
<rect x="77" y="72" width="2" height="1" fill="#FF5B00" />
<rect x="79" y="72" width="1" height="2" fill="#E45100" />
<rect x="81" y="72" width="1" height="1" fill="#E45100" />
<rect x="82" y="72" width="2" height="4" fill="#FE5A00" />
<rect x="88" y="72" width="3" height="1" fill="#FF5B00" />
<rect x="91" y="72" width="2" height="1" fill="#E45100" />
<rect x="93" y="72" width="7" height="2" fill="#FE5A00" />
<rect x="102" y="72" width="3" height="1" fill="#FE5A00" />
<rect x="105" y="72" width="3" height="1" fill="#FF5B00" />
<rect x="42" y="73" width="2" height="2" fill="#FE5A00" />
<rect x="53" y="73" width="1" height="1" fill="#A33A00" />
<rect x="54" y="73" width="3" height="3" fill="#FE5A00" />
<rect x="59" y="73" width="5" height="3" fill="#FE5A00" />
<rect x="66" y="73" width="3" height="1" fill="#A33A00" />
<rect x="69" y="73" width="3" height="2" fill="#FE5A00" />
<rect x="77" y="73" width="1" height="1" fill="#FF5B00" />
<rect x="78" y="73" width="1" height="1" fill="#E45100" />
<rect x="80" y="73" width="2" height="3" fill="#FE5A00" />
<rect x="85" y="73" width="1" height="3" fill="#FE5A00" />
<rect x="86" y="73" width="3" height="1" fill="#FF5B00" />
<rect x="89" y="73" width="1" height="1" fill="#FE5A00" />
<rect x="90" y="73" width="2" height="1" fill="#E45100" />
<rect x="92" y="73" width="1" height="1" fill="#A33A00" />
<rect x="100" y="73" width="2" height="1" fill="#FE5A00" />
<rect x="102" y="73" width="2" height="1" fill="#FF5B00" />
<rect x="104" y="73" width="3" height="1" fill="#FF3413" />
<rect x="107" y="73" width="1" height="1" fill="#FF5B00" />
<rect x="34" y="74" width="8" height="2" fill="#FE5A00" />
<rect x="45" y="74" width="1" height="1" fill="#FE5A00" />
<rect x="46" y="74" width="5" height="1" fill="#A33A00" />
<rect x="51" y="74" width="3" height="3" fill="#FE5A00" />
<rect x="66" y="74" width="3" height="1" fill="#FE5A00" />
<rect x="77" y="74" width="3" height="1" fill="#FE5A00" />
<rect x="86" y="74" width="2" height="1" fill="#FE5A00" />
<rect x="88" y="74" width="3" height="1" fill="#E45100" />
<rect x="91" y="74" width="1" height="1" fill="#A33A00" />
<rect x="92" y="74" width="2" height="1" fill="#FF5B00" />
<rect x="94" y="74" width="6" height="1" fill="#FE5A00" />
<rect x="100" y="74" width="2" height="1" fill="#FF5B00" />
<rect x="102" y="74" width="4" height="1" fill="#FF3413" />
<rect x="106" y="74" width="1" height="1" fill="#FF5B00" />
<rect x="22" y="75" width="12" height="3" fill="#FE5A00" />
<rect x="42" y="75" width="1" height="1" fill="#FE5A00" />
<rect x="43" y="75" width="5" height="1" fill="#A33A00" />
<rect x="48" y="75" width="3" height="2" fill="#FE5A00" />
<rect x="66" y="75" width="9" height="1" fill="#FF7300" />
<rect x="75" y="75" width="1" height="1" fill="#FE5A00" />
<rect x="76" y="75" width="2" height="1" fill="#FF7300" />
<rect x="78" y="75" width="2" height="1" fill="#FE5A00" />
<rect x="86" y="75" width="19" height="1" fill="#FF3413" />
<rect x="105" y="75" width="2" height="1" fill="#FE5A00" />
<rect x="21" y="76" width="1" height="2" fill="#FE5A00" />
<rect x="34" y="76" width="3" height="2" fill="#FE5A00" />
<rect x="37" y="76" width="7" height="1" fill="#A33A00" />
<rect x="44" y="76" width="4" height="1" fill="#FE5A00" />
<rect x="54" y="76" width="6" height="1" fill="#A33A00" />
<rect x="60" y="76" width="4" height="1" fill="#FE5A00" />
<rect x="66" y="76" width="3" height="2" fill="#FE5A00" />
<rect x="69" y="76" width="1" height="1" fill="#FF3900" />
<rect x="70" y="76" width="7" height="1" fill="#FF7300" />
<rect x="77" y="76" width="1" height="1" fill="#FF3900" />
<rect x="78" y="76" width="1" height="2" fill="#FF3413" />
<rect x="79" y="76" width="2" height="1" fill="#FE5A00" />
<rect x="81" y="76" width="7" height="1" fill="#E45100" />
<rect x="88" y="76" width="2" height="1" fill="#A33A00" />
<rect x="90" y="76" width="1" height="1" fill="#FF5B00" />
<rect x="91" y="76" width="9" height="1" fill="#FF3413" />
<rect x="100" y="76" width="5" height="1" fill="#FE5A00" />
<rect x="106" y="76" width="1" height="2" fill="#FE5A00" />
<rect x="20" y="77" width="1" height="1" fill="#FE5A00" />
<rect x="37" y="77" width="10" height="1" fill="#FE5A00" />
<rect x="47" y="77" width="9" height="1" fill="#A33A00" />
<rect x="57" y="77" width="5" height="1" fill="#FF3413" />
<rect x="62" y="77" width="2" height="1" fill="#FE5A00" />
<rect x="69" y="77" width="7" height="1" fill="#FE5A00" />
<rect x="76" y="77" width="2" height="1" fill="#FF3413" />
<rect x="79" y="77" width="4" height="1" fill="#A33A00" />
<rect x="83" y="77" width="6" height="1" fill="#E45100" />
<rect x="89" y="77" width="1" height="1" fill="#FF5B00" />
<rect x="90" y="77" width="1" height="5" fill="#E45100" />
<rect x="91" y="77" width="2" height="1" fill="#FE5A00" />
<rect x="95" y="77" width="6" height="1" fill="#FE5A00" />
<rect x="105" y="77" width="1" height="4" fill="#FE5A00" />
<rect x="20" y="78" width="5" height="1" fill="#A33A00" />
<rect x="25" y="78" width="11" height="1" fill="#FE5A00" />
<rect x="43" y="78" width="2" height="1" fill="#A33A00" />
<rect x="45" y="78" width="8" height="1" fill="#FF3413" />
<rect x="58" y="78" width="3" height="1" fill="#FE5A00" />
<rect x="61" y="78" width="16" height="1" fill="#FF3413" />
<rect x="77" y="78" width="2" height="1" fill="#FE5A00" />
<rect x="83" y="78" width="3" height="1" fill="#E45100" />
<rect x="86" y="78" width="1" height="1" fill="#FE5A00" />
<rect x="87" y="78" width="3" height="2" fill="#E45100" />
<rect x="91" y="78" width="1" height="2" fill="#FE5A00" />
<rect x="20" y="79" width="1" height="1" fill="#A33A00" />
<rect x="21" y="79" width="1" height="1" fill="#FE5A00" />
<rect x="22" y="79" width="6" height="1" fill="#A33A00" />
<rect x="65" y="79" width="3" height="1" fill="#FE5A00" />
<rect x="84" y="79" width="3" height="1" fill="#E45100" />
<rect x="86" y="80" width="2" height="1" fill="#E45100" />
<rect x="88" y="80" width="1" height="1" fill="#A33A00" />
<rect x="89" y="80" width="1" height="1" fill="#FE5A00" />
<rect x="104" y="80" width="1" height="2" fill="#FE5A00" />
<rect x="113" y="80" width="1" height="2" fill="#A33A00" />
<rect x="86" y="81" width="1" height="2" fill="#FE5A00" />
<rect x="87" y="81" width="1" height="1" fill="#A33A00" />
<rect x="88" y="81" width="1" height="1" fill="#FE5A00" />
<rect x="89" y="81" width="1" height="2" fill="#E45100" />
<rect x="112" y="81" width="1" height="1" fill="#A33A00" />
<rect x="87" y="82" width="1" height="6" fill="#FE5A00" />
<rect x="88" y="82" width="1" height="1" fill="#E45100" />
<rect x="90" y="82" width="1" height="1" fill="#FF5B00" />
<rect x="88" y="83" width="2" height="3" fill="#FE5A00" />
<rect x="83" y="84" width="1" height="1" fill="#E45100" />
<rect x="81" y="86" width="2" height="1" fill="#E45100" />
<rect x="84" y="88" width="3" height="1" fill="#E45100" />
</svg>